<mxfile host="embed.diagrams.net" modified="2020-07-21T11:24:52.673Z" agent="5.0 (Windows NT 10.0; Win64; x64) AppleWebKit/537.36 (KHTML, like Gecko) Code/1.47.2 Chrome/78.0.3904.130 Electron/7.3.2 Safari/537.36" etag="SodMU1RymyuLQwcIxzoy" version="13.4.9">
    <diagram id="oYGP6UrtTsNAIgC16M4n" name="ページ1">
        <mxGraphModel dx="602" dy="264" grid="1" gridSize="10" guides="1" tooltips="1" connect="1" arrows="1" fold="1" page="1" pageScale="1" pageWidth="1169" pageHeight="827" math="0" shadow="0">
            <root>
                <mxCell id="0"/>
                <mxCell id="1" parent="0"/>
                <mxCell id="nOhWF1fDPpmUyGXy9ADT-2" value="" style="rounded=0;whiteSpace=wrap;html=1;fontSize=15;align=center;fillColor=#e1d5e7;strokeColor=#9673a6;" parent="1" vertex="1">
                    <mxGeometry x="1520" y="161.2" width="880" height="609.5" as="geometry"/>
                </mxCell>
                <mxCell id="nOhWF1fDPpmUyGXy9ADT-56" value="" style="rounded=1;whiteSpace=wrap;html=1;fontSize=16;fillColor=#fff2cc;strokeColor=#d6b656;" parent="1" vertex="1">
                    <mxGeometry x="2126.72" y="223.5" width="253.28" height="269.5" as="geometry"/>
                </mxCell>
                <mxCell id="B9NQlhlajvg14uuiPyoT-13" value="" style="rounded=0;whiteSpace=wrap;html=1;fontSize=15;fillColor=#e1d5e7;strokeColor=#9673a6;" parent="1" vertex="1">
                    <mxGeometry x="840" y="877" width="320" height="323" as="geometry"/>
                </mxCell>
                <mxCell id="B9NQlhlajvg14uuiPyoT-3" value="" style="rounded=1;whiteSpace=wrap;html=1;fontSize=16;fillColor=#fff2cc;strokeColor=#d6b656;" parent="1" vertex="1">
                    <mxGeometry x="867" y="951.75" width="280" height="170" as="geometry"/>
                </mxCell>
                <mxCell id="wK1j_AsNzxJEVWmwfFim-67" value="" style="rounded=0;whiteSpace=wrap;html=1;fontSize=15;align=center;fillColor=#e1d5e7;strokeColor=#9673a6;" parent="1" vertex="1">
                    <mxGeometry x="830" y="180" width="590" height="500" as="geometry"/>
                </mxCell>
                <mxCell id="wK1j_AsNzxJEVWmwfFim-51" value="" style="aspect=fixed;pointerEvents=1;shadow=0;dashed=0;html=1;strokeColor=none;labelPosition=center;verticalLabelPosition=bottom;verticalAlign=top;align=center;fillColor=#00188D;shape=mxgraph.mscae.enterprise.internet;fontSize=15;" parent="1" vertex="1">
                    <mxGeometry x="1080" y="40.7" width="160.16" height="99.3" as="geometry"/>
                </mxCell>
                <mxCell id="wK1j_AsNzxJEVWmwfFim-47" value="" style="rounded=0;whiteSpace=wrap;html=1;fontSize=15;align=center;fillColor=#e1d5e7;strokeColor=#9673a6;" parent="1" vertex="1">
                    <mxGeometry x="20" y="140" width="590" height="620" as="geometry"/>
                </mxCell>
                <mxCell id="b4y2iu5C6TyIT8BFHeu6-1" style="edgeStyle=orthogonalEdgeStyle;rounded=0;orthogonalLoop=1;jettySize=auto;html=1;entryX=0.5;entryY=0;entryDx=0;entryDy=0;startArrow=classic;startFill=1;" parent="1" source="b4y2iu5C6TyIT8BFHeu6-3" target="b4y2iu5C6TyIT8BFHeu6-12" edge="1">
                    <mxGeometry relative="1" as="geometry"/>
                </mxCell>
                <mxCell id="b4y2iu5C6TyIT8BFHeu6-2" style="edgeStyle=orthogonalEdgeStyle;rounded=0;orthogonalLoop=1;jettySize=auto;html=1;entryX=0;entryY=0.5;entryDx=0;entryDy=0;startArrow=classic;startFill=1;" parent="1" source="b4y2iu5C6TyIT8BFHeu6-3" target="b4y2iu5C6TyIT8BFHeu6-23" edge="1">
                    <mxGeometry relative="1" as="geometry"/>
                </mxCell>
                <mxCell id="b4y2iu5C6TyIT8BFHeu6-3" value="" style="rounded=1;whiteSpace=wrap;html=1;fontSize=16;fillColor=#fff2cc;strokeColor=#d6b656;" parent="1" vertex="1">
                    <mxGeometry x="880" y="233" width="240" height="170" as="geometry"/>
                </mxCell>
                <mxCell id="b4y2iu5C6TyIT8BFHeu6-4" value="image: wordpress:latest&lt;br&gt;middlewares:&lt;br&gt;&amp;nbsp; &amp;nbsp; - apache: 2.4.38&lt;br&gt;&amp;nbsp; &amp;nbsp; - php: 7.3.31&lt;br&gt;" style="text;html=1;strokeColor=none;fillColor=none;align=left;verticalAlign=top;whiteSpace=wrap;rounded=0;fontSize=16;" parent="1" vertex="1">
                    <mxGeometry x="900" y="253" width="200" height="90" as="geometry"/>
                </mxCell>
                <mxCell id="b4y2iu5C6TyIT8BFHeu6-8" value="ja.wordpress.org" style="text;html=1;strokeColor=none;fillColor=none;align=center;verticalAlign=middle;whiteSpace=wrap;rounded=0;fontSize=16;fontColor=#FFFFFF;" parent="1" vertex="1">
                    <mxGeometry x="1090" y="93" width="150" height="20" as="geometry"/>
                </mxCell>
                <mxCell id="b4y2iu5C6TyIT8BFHeu6-9" value="" style="endArrow=classic;html=1;fontSize=16;entryX=0.918;entryY=0.02;entryDx=0;entryDy=0;entryPerimeter=0;" parent="1" target="wK1j_AsNzxJEVWmwfFim-52" edge="1">
                    <mxGeometry width="50" height="50" relative="1" as="geometry">
                        <mxPoint x="1154" y="139" as="sourcePoint"/>
                        <mxPoint x="1040" y="343" as="targetPoint"/>
                    </mxGeometry>
                </mxCell>
                <mxCell id="b4y2iu5C6TyIT8BFHeu6-10" value="&lt;font style=&quot;font-size: 14px&quot;&gt;起動時に日本語版WordPressをダウンロード&lt;/font&gt;" style="text;html=1;strokeColor=none;fillColor=none;align=center;verticalAlign=middle;whiteSpace=wrap;rounded=0;fontSize=16;" parent="1" vertex="1">
                    <mxGeometry x="945" y="140" width="175" height="40" as="geometry"/>
                </mxCell>
                <mxCell id="b4y2iu5C6TyIT8BFHeu6-11" style="edgeStyle=orthogonalEdgeStyle;rounded=0;orthogonalLoop=1;jettySize=auto;html=1;entryX=0;entryY=0.5;entryDx=0;entryDy=0;startArrow=classic;startFill=1;fontSize=16;" parent="1" source="b4y2iu5C6TyIT8BFHeu6-12" target="b4y2iu5C6TyIT8BFHeu6-16" edge="1">
                    <mxGeometry relative="1" as="geometry"/>
                </mxCell>
                <mxCell id="b4y2iu5C6TyIT8BFHeu6-12" value="" style="rounded=1;whiteSpace=wrap;html=1;fontSize=16;fillColor=#fff2cc;strokeColor=#d6b656;" parent="1" vertex="1">
                    <mxGeometry x="880" y="473" width="240" height="170" as="geometry"/>
                </mxCell>
                <mxCell id="b4y2iu5C6TyIT8BFHeu6-13" value="image: mysql:5.7&lt;br&gt;middlewares:&lt;br&gt;&amp;nbsp; &amp;nbsp; - mysql: 5.7.28" style="text;html=1;strokeColor=none;fillColor=none;align=left;verticalAlign=top;whiteSpace=wrap;rounded=0;fontSize=16;" parent="1" vertex="1">
                    <mxGeometry x="920" y="483" width="160" height="90" as="geometry"/>
                </mxCell>
                <mxCell id="b4y2iu5C6TyIT8BFHeu6-14" value="db-data&lt;br&gt;ボリュームコンテナ" style="rounded=1;whiteSpace=wrap;html=1;fontSize=16;align=center;fillColor=#d5e8d4;strokeColor=#82b366;" parent="1" vertex="1">
                    <mxGeometry x="920" y="573" width="160" height="60" as="geometry"/>
                </mxCell>
                <mxCell id="b4y2iu5C6TyIT8BFHeu6-16" value="" style="rounded=1;whiteSpace=wrap;html=1;fontSize=16;fillColor=#fff2cc;strokeColor=#d6b656;" parent="1" vertex="1">
                    <mxGeometry x="1160" y="473" width="240" height="170" as="geometry"/>
                </mxCell>
                <mxCell id="b4y2iu5C6TyIT8BFHeu6-17" value="image: phpmyadmin:latest&lt;br&gt;middlewares:&lt;br&gt;&amp;nbsp; &amp;nbsp; - phpMyAdmin: 5.0.0&lt;br&gt;&lt;br&gt;&lt;font style=&quot;font-size: 14px&quot;&gt;※データベースの内容確認用&lt;/font&gt;" style="text;html=1;strokeColor=none;fillColor=none;align=left;verticalAlign=top;whiteSpace=wrap;rounded=0;fontSize=16;" parent="1" vertex="1">
                    <mxGeometry x="1180" y="483" width="200" height="110" as="geometry"/>
                </mxCell>
                <mxCell id="b4y2iu5C6TyIT8BFHeu6-22" value="&lt;span style=&quot;font-size: 14px&quot;&gt;コンテナ起動時、Docker実行ユーザと&lt;br&gt;webコンテナ内ユーザ（www-data）の&lt;br&gt;ユーザIDを合わせてパーミッションを修正&lt;br&gt;&lt;/span&gt;" style="text;html=1;strokeColor=none;fillColor=none;align=center;verticalAlign=middle;whiteSpace=wrap;rounded=0;fontSize=16;" parent="1" vertex="1">
                    <mxGeometry x="800" y="693" width="280" height="70" as="geometry"/>
                </mxCell>
                <mxCell id="b4y2iu5C6TyIT8BFHeu6-23" value="" style="rounded=1;whiteSpace=wrap;html=1;fontSize=16;fillColor=#fff2cc;strokeColor=#d6b656;" parent="1" vertex="1">
                    <mxGeometry x="1160" y="233" width="240" height="170" as="geometry"/>
                </mxCell>
                <mxCell id="b4y2iu5C6TyIT8BFHeu6-24" value="image: mailhog&lt;br&gt;middlewares:&lt;br&gt;&amp;nbsp; &amp;nbsp; - MailHog&lt;br&gt;&lt;br&gt;&lt;font style=&quot;font-size: 14px&quot;&gt;※ローカル環境でメール送受信&lt;br&gt;　を可能にする&lt;/font&gt;" style="text;html=1;strokeColor=none;fillColor=none;align=left;verticalAlign=top;whiteSpace=wrap;rounded=0;fontSize=16;" parent="1" vertex="1">
                    <mxGeometry x="1180" y="260" width="200" height="133" as="geometry"/>
                </mxCell>
                <mxCell id="wK1j_AsNzxJEVWmwfFim-2" value="" style="rounded=1;whiteSpace=wrap;html=1;fontSize=16;fillColor=#fff2cc;strokeColor=#d6b656;" parent="1" vertex="1">
                    <mxGeometry x="119.99" y="483" width="320" height="197" as="geometry"/>
                </mxCell>
                <mxCell id="wK1j_AsNzxJEVWmwfFim-3" value="" style="rounded=1;whiteSpace=wrap;html=1;fontSize=16;fillColor=#fff2cc;strokeColor=#d6b656;" parent="1" vertex="1">
                    <mxGeometry x="45.44" y="200" width="200" height="120" as="geometry"/>
                </mxCell>
                <mxCell id="wK1j_AsNzxJEVWmwfFim-4" value="" style="aspect=fixed;html=1;points=[];align=center;image;fontSize=12;image=img/lib/mscae/Docker.svg;" parent="1" vertex="1">
                    <mxGeometry x="275" y="740" width="81.71" height="67" as="geometry"/>
                </mxCell>
                <mxCell id="wK1j_AsNzxJEVWmwfFim-18" style="edgeStyle=orthogonalEdgeStyle;rounded=0;orthogonalLoop=1;jettySize=auto;html=1;exitX=0;exitY=0.5;exitDx=0;exitDy=0;entryX=-0.009;entryY=0.48;entryDx=0;entryDy=0;entryPerimeter=0;fontSize=15;" parent="1" source="wK1j_AsNzxJEVWmwfFim-5" target="wK1j_AsNzxJEVWmwfFim-17" edge="1">
                    <mxGeometry relative="1" as="geometry">
                        <Array as="points">
                            <mxPoint x="200" y="651"/>
                            <mxPoint x="30" y="651"/>
                            <mxPoint x="30" y="282"/>
                        </Array>
                    </mxGeometry>
                </mxCell>
                <mxCell id="wK1j_AsNzxJEVWmwfFim-5" value="" style="rounded=1;whiteSpace=wrap;html=1;fontSize=16;align=center;fillColor=#d5e8d4;strokeColor=#82b366;" parent="1" vertex="1">
                    <mxGeometry x="200" y="577" width="160" height="153" as="geometry"/>
                </mxCell>
                <mxCell id="wK1j_AsNzxJEVWmwfFim-13" style="edgeStyle=orthogonalEdgeStyle;rounded=0;orthogonalLoop=1;jettySize=auto;html=1;fontSize=15;entryX=0.767;entryY=0.05;entryDx=0;entryDy=0;entryPerimeter=0;" parent="1" source="wK1j_AsNzxJEVWmwfFim-6" target="wK1j_AsNzxJEVWmwfFim-11" edge="1">
                    <mxGeometry relative="1" as="geometry">
                        <Array as="points">
                            <mxPoint x="480" y="534"/>
                            <mxPoint x="480" y="639"/>
                        </Array>
                    </mxGeometry>
                </mxCell>
                <mxCell id="wK1j_AsNzxJEVWmwfFim-37" style="edgeStyle=orthogonalEdgeStyle;rounded=0;orthogonalLoop=1;jettySize=auto;html=1;entryX=0.1;entryY=0.5;entryDx=0;entryDy=0;entryPerimeter=0;fontSize=15;" parent="1" source="wK1j_AsNzxJEVWmwfFim-6" target="wK1j_AsNzxJEVWmwfFim-36" edge="1">
                    <mxGeometry relative="1" as="geometry">
                        <Array as="points">
                            <mxPoint x="280" y="343"/>
                        </Array>
                    </mxGeometry>
                </mxCell>
                <mxCell id="wK1j_AsNzxJEVWmwfFim-6" value="image:&lt;br&gt;&amp;nbsp; jrcs/letsencrypt-nginx-proxy-companion" style="text;html=1;strokeColor=none;fillColor=none;align=left;verticalAlign=middle;whiteSpace=wrap;rounded=0;fontSize=15;" parent="1" vertex="1">
                    <mxGeometry x="140" y="500" width="280" height="57" as="geometry"/>
                </mxCell>
                <mxCell id="wK1j_AsNzxJEVWmwfFim-7" value="" style="aspect=fixed;pointerEvents=1;shadow=0;dashed=0;html=1;strokeColor=none;labelPosition=center;verticalLabelPosition=bottom;verticalAlign=top;align=center;fillColor=#00188D;shape=mxgraph.mscae.enterprise.shared_folder;fontSize=15;" parent="1" vertex="1">
                    <mxGeometry x="190" y="557" width="43" height="50" as="geometry"/>
                </mxCell>
                <mxCell id="wK1j_AsNzxJEVWmwfFim-8" value="letsencrypt" style="rounded=0;whiteSpace=wrap;html=1;fontSize=15;align=center;fillColor=#ffe6cc;strokeColor=#d79b00;" parent="1" vertex="1">
                    <mxGeometry x="140" y="470" width="100" height="30" as="geometry"/>
                </mxCell>
                <mxCell id="wK1j_AsNzxJEVWmwfFim-45" style="edgeStyle=orthogonalEdgeStyle;rounded=0;orthogonalLoop=1;jettySize=auto;html=1;entryX=1;entryY=0.5;entryDx=0;entryDy=0;fontSize=15;" parent="1" source="wK1j_AsNzxJEVWmwfFim-9" target="wK1j_AsNzxJEVWmwfFim-12" edge="1">
                    <mxGeometry relative="1" as="geometry">
                        <Array as="points">
                            <mxPoint x="690" y="700"/>
                        </Array>
                    </mxGeometry>
                </mxCell>
                <mxCell id="wK1j_AsNzxJEVWmwfFim-9" value="" style="aspect=fixed;html=1;points=[];align=center;image;fontSize=12;image=img/lib/mscae/Key_Vaults.svg;" parent="1" vertex="1">
                    <mxGeometry x="666" y="550" width="48" height="50" as="geometry"/>
                </mxCell>
                <mxCell id="wK1j_AsNzxJEVWmwfFim-10" value="&lt;span style=&quot;font-size: 16px&quot;&gt;certs&lt;/span&gt;&lt;br style=&quot;font-size: 16px&quot;&gt;&lt;span style=&quot;font-size: 16px&quot;&gt;ボリューム&lt;/span&gt;" style="text;html=1;strokeColor=none;fillColor=none;align=center;verticalAlign=middle;whiteSpace=wrap;rounded=0;fontSize=15;" parent="1" vertex="1">
                    <mxGeometry x="235" y="584" width="90" height="43" as="geometry"/>
                </mxCell>
                <mxCell id="wK1j_AsNzxJEVWmwfFim-11" value="default" style="shape=hexagon;perimeter=hexagonPerimeter2;whiteSpace=wrap;html=1;fontSize=15;align=center;fillColor=#dae8fc;strokeColor=#6c8ebf;" parent="1" vertex="1">
                    <mxGeometry x="219.99" y="637" width="120" height="40" as="geometry"/>
                </mxCell>
                <mxCell id="wK1j_AsNzxJEVWmwfFim-12" value="SSL keys" style="shape=hexagon;perimeter=hexagonPerimeter2;whiteSpace=wrap;html=1;fontSize=15;align=center;fillColor=#dae8fc;strokeColor=#6c8ebf;" parent="1" vertex="1">
                    <mxGeometry x="219.99" y="680" width="120" height="40" as="geometry"/>
                </mxCell>
                <mxCell id="wK1j_AsNzxJEVWmwfFim-14" value="自己証明書" style="text;html=1;strokeColor=none;fillColor=none;align=center;verticalAlign=middle;whiteSpace=wrap;rounded=0;fontSize=15;" parent="1" vertex="1">
                    <mxGeometry x="390" y="584" width="90" height="20" as="geometry"/>
                </mxCell>
                <mxCell id="wK1j_AsNzxJEVWmwfFim-15" value="nginx-proxy" style="rounded=0;whiteSpace=wrap;html=1;fontSize=15;align=center;fillColor=#ffe6cc;strokeColor=#d79b00;" parent="1" vertex="1">
                    <mxGeometry x="65.44" y="183" width="114.56" height="30" as="geometry"/>
                </mxCell>
                <mxCell id="wK1j_AsNzxJEVWmwfFim-16" value="image: jwilder/nginx-proxy" style="text;html=1;strokeColor=none;fillColor=none;align=left;verticalAlign=middle;whiteSpace=wrap;rounded=0;fontSize=15;" parent="1" vertex="1">
                    <mxGeometry x="55.870000000000005" y="213" width="179.14" height="30" as="geometry"/>
                </mxCell>
                <mxCell id="wK1j_AsNzxJEVWmwfFim-17" value="" style="aspect=fixed;html=1;points=[];align=center;image;fontSize=12;image=img/lib/mscae/Application_Gateway.svg;" parent="1" vertex="1">
                    <mxGeometry x="120.44" y="258" width="50" height="50" as="geometry"/>
                </mxCell>
                <mxCell id="wK1j_AsNzxJEVWmwfFim-19" value="SSL化" style="text;html=1;strokeColor=none;fillColor=none;align=center;verticalAlign=middle;whiteSpace=wrap;rounded=0;fontSize=15;" parent="1" vertex="1">
                    <mxGeometry x="120.44" y="627" width="70.01" height="20" as="geometry"/>
                </mxCell>
                <mxCell id="wK1j_AsNzxJEVWmwfFim-20" value="" style="aspect=fixed;pointerEvents=1;shadow=0;dashed=0;html=1;strokeColor=none;labelPosition=center;verticalLabelPosition=bottom;verticalAlign=top;align=center;fillColor=#00188D;shape=mxgraph.mscae.enterprise.internet;fontSize=15;" parent="1" vertex="1">
                    <mxGeometry x="107.53999999999999" y="29.5" width="75.81" height="47" as="geometry"/>
                </mxCell>
                <mxCell id="wK1j_AsNzxJEVWmwfFim-22" value="" style="shape=flexArrow;endArrow=classic;html=1;fontSize=15;fillColor=#dae8fc;strokeColor=#6c8ebf;" parent="1" edge="1">
                    <mxGeometry width="50" height="50" relative="1" as="geometry">
                        <mxPoint x="145.43" y="84.5" as="sourcePoint"/>
                        <mxPoint x="145.43" y="174.5" as="targetPoint"/>
                    </mxGeometry>
                </mxCell>
                <mxCell id="wK1j_AsNzxJEVWmwfFim-23" value="&lt;div&gt;&lt;span&gt;Port:&lt;/span&gt;&lt;/div&gt;&lt;div&gt;&lt;span&gt;&amp;nbsp; - 80: HTTP&lt;/span&gt;&lt;/div&gt;&lt;div&gt;&lt;span&gt;&amp;nbsp; - 443: HTTPS&lt;/span&gt;&lt;/div&gt;" style="text;html=1;strokeColor=none;fillColor=none;align=left;verticalAlign=middle;whiteSpace=wrap;rounded=0;fontSize=15;" parent="1" vertex="1">
                    <mxGeometry x="160.44" y="83" width="120" height="60" as="geometry"/>
                </mxCell>
                <mxCell id="wK1j_AsNzxJEVWmwfFim-24" value="" style="rounded=1;whiteSpace=wrap;html=1;fontSize=16;fillColor=#fff2cc;strokeColor=#d6b656;" parent="1" vertex="1">
                    <mxGeometry x="356.71000000000004" y="200" width="220.01" height="220" as="geometry"/>
                </mxCell>
                <mxCell id="wK1j_AsNzxJEVWmwfFim-25" value="APP 1" style="rounded=0;whiteSpace=wrap;html=1;fontSize=15;align=center;fillColor=#ffe6cc;strokeColor=#d79b00;" parent="1" vertex="1">
                    <mxGeometry x="376.71000000000004" y="183" width="80" height="30" as="geometry"/>
                </mxCell>
                <mxCell id="wK1j_AsNzxJEVWmwfFim-27" value="&lt;font style=&quot;font-size: 12px&quot;&gt;VIRTUAL_HOST&lt;/font&gt;" style="shape=step;perimeter=stepPerimeter;whiteSpace=wrap;html=1;fixedSize=1;fontSize=15;align=center;" parent="1" vertex="1">
                    <mxGeometry x="371.72" y="253" width="190" height="30" as="geometry"/>
                </mxCell>
                <mxCell id="wK1j_AsNzxJEVWmwfFim-28" value="&lt;font style=&quot;font-size: 12px&quot;&gt;VIRTUAL_PORT&lt;/font&gt;" style="shape=step;perimeter=stepPerimeter;whiteSpace=wrap;html=1;fixedSize=1;fontSize=15;align=center;" parent="1" vertex="1">
                    <mxGeometry x="371.72" y="283" width="190" height="30" as="geometry"/>
                </mxCell>
                <mxCell id="wK1j_AsNzxJEVWmwfFim-29" value="&lt;font style=&quot;font-size: 12px&quot;&gt;LETSENCRYPT_HOST&lt;/font&gt;" style="shape=step;perimeter=stepPerimeter;whiteSpace=wrap;html=1;fixedSize=1;fontSize=15;align=center;" parent="1" vertex="1">
                    <mxGeometry x="371.72" y="313" width="190" height="30" as="geometry"/>
                </mxCell>
                <mxCell id="wK1j_AsNzxJEVWmwfFim-30" value="&lt;font style=&quot;font-size: 12px&quot;&gt;LETSENCRYPT_EMAIL&lt;/font&gt;" style="shape=step;perimeter=stepPerimeter;whiteSpace=wrap;html=1;fixedSize=1;fontSize=15;align=center;" parent="1" vertex="1">
                    <mxGeometry x="371.72" y="343" width="190" height="30" as="geometry"/>
                </mxCell>
                <mxCell id="wK1j_AsNzxJEVWmwfFim-43" style="edgeStyle=orthogonalEdgeStyle;rounded=0;orthogonalLoop=1;jettySize=auto;html=1;fontSize=15;entryX=1;entryY=0.5;entryDx=0;entryDy=0;" parent="1" source="wK1j_AsNzxJEVWmwfFim-31" target="wK1j_AsNzxJEVWmwfFim-11" edge="1">
                    <mxGeometry relative="1" as="geometry">
                        <mxPoint x="311" y="680" as="targetPoint"/>
                        <Array as="points">
                            <mxPoint x="600" y="388"/>
                            <mxPoint x="600" y="657"/>
                        </Array>
                    </mxGeometry>
                </mxCell>
                <mxCell id="wK1j_AsNzxJEVWmwfFim-31" value="&lt;font style=&quot;font-size: 12px&quot;&gt;CERT_NAME&lt;/font&gt;" style="shape=step;perimeter=stepPerimeter;whiteSpace=wrap;html=1;fixedSize=1;fontSize=15;align=center;" parent="1" vertex="1">
                    <mxGeometry x="371.72" y="373" width="190" height="30" as="geometry"/>
                </mxCell>
                <mxCell id="wK1j_AsNzxJEVWmwfFim-32" value="環境変数" style="text;html=1;strokeColor=none;fillColor=none;align=center;verticalAlign=middle;whiteSpace=wrap;rounded=0;fontSize=15;" parent="1" vertex="1">
                    <mxGeometry x="376.71000000000004" y="223" width="90" height="20" as="geometry"/>
                </mxCell>
                <mxCell id="wK1j_AsNzxJEVWmwfFim-33" value="" style="shape=curlyBracket;whiteSpace=wrap;html=1;rounded=1;fontSize=15;align=left;" parent="1" vertex="1">
                    <mxGeometry x="340" y="253" width="20" height="60" as="geometry"/>
                </mxCell>
                <mxCell id="wK1j_AsNzxJEVWmwfFim-35" value="対応するドメイン名にアクセス振り分け" style="text;html=1;strokeColor=none;fillColor=none;align=center;verticalAlign=middle;whiteSpace=wrap;rounded=0;fontSize=15;" parent="1" vertex="1">
                    <mxGeometry x="165.44000000000003" y="290" width="160.01" height="40" as="geometry"/>
                </mxCell>
                <mxCell id="wK1j_AsNzxJEVWmwfFim-36" value="" style="shape=curlyBracket;whiteSpace=wrap;html=1;rounded=1;fontSize=15;align=left;" parent="1" vertex="1">
                    <mxGeometry x="340" y="313" width="20" height="60" as="geometry"/>
                </mxCell>
                <mxCell id="wK1j_AsNzxJEVWmwfFim-39" value="対応するドメイン名の&lt;br&gt;無料SSL発行申請" style="text;html=1;strokeColor=none;fillColor=none;align=center;verticalAlign=middle;whiteSpace=wrap;rounded=0;fontSize=15;" parent="1" vertex="1">
                    <mxGeometry x="110.00000000000001" y="380" width="160.01" height="40" as="geometry"/>
                </mxCell>
                <mxCell id="wK1j_AsNzxJEVWmwfFim-40" value="Let's Encrypt&lt;br&gt;無料SSL発行サービス" style="text;html=1;strokeColor=none;fillColor=none;align=center;verticalAlign=middle;whiteSpace=wrap;rounded=0;fontSize=15;" parent="1" vertex="1">
                    <mxGeometry x="610" y="500" width="160" height="50" as="geometry"/>
                </mxCell>
                <mxCell id="wK1j_AsNzxJEVWmwfFim-42" style="edgeStyle=orthogonalEdgeStyle;rounded=0;orthogonalLoop=1;jettySize=auto;html=1;entryX=0.5;entryY=0;entryDx=0;entryDy=0;fontSize=15;" parent="1" source="wK1j_AsNzxJEVWmwfFim-41" target="wK1j_AsNzxJEVWmwfFim-40" edge="1">
                    <mxGeometry relative="1" as="geometry"/>
                </mxCell>
                <mxCell id="wK1j_AsNzxJEVWmwfFim-41" value="" style="shape=curlyBracket;whiteSpace=wrap;html=1;rounded=1;fontSize=15;align=left;flipV=1;flipH=1;" parent="1" vertex="1">
                    <mxGeometry x="570" y="313" width="20" height="60" as="geometry"/>
                </mxCell>
                <mxCell id="wK1j_AsNzxJEVWmwfFim-44" value="ローカル開発時は default を指定" style="text;html=1;strokeColor=none;fillColor=none;align=center;verticalAlign=middle;whiteSpace=wrap;rounded=0;fontSize=15;" parent="1" vertex="1">
                    <mxGeometry x="466.71" y="443" width="130" height="83" as="geometry"/>
                </mxCell>
                <mxCell id="wK1j_AsNzxJEVWmwfFim-46" value="無料SSL発行申請" style="text;html=1;strokeColor=none;fillColor=none;align=center;verticalAlign=middle;whiteSpace=wrap;rounded=0;fontSize=15;" parent="1" vertex="1">
                    <mxGeometry x="590" y="303" width="130" height="40" as="geometry"/>
                </mxCell>
                <mxCell id="wK1j_AsNzxJEVWmwfFim-49" value="" style="shape=flexArrow;endArrow=classic;html=1;fontSize=15;fillColor=#dae8fc;strokeColor=#6c8ebf;entryX=0.1;entryY=0.5;entryDx=0;entryDy=0;entryPerimeter=0;" parent="1" target="wK1j_AsNzxJEVWmwfFim-33" edge="1">
                    <mxGeometry width="50" height="50" relative="1" as="geometry">
                        <mxPoint x="170" y="283" as="sourcePoint"/>
                        <mxPoint x="211.00000000000006" y="373" as="targetPoint"/>
                    </mxGeometry>
                </mxCell>
                <mxCell id="wK1j_AsNzxJEVWmwfFim-50" value="" style="aspect=fixed;html=1;points=[];align=center;image;fontSize=12;image=img/lib/mscae/Databricks.svg;" parent="1" vertex="1">
                    <mxGeometry x="900" y="550" width="50" height="48" as="geometry"/>
                </mxCell>
                <mxCell id="wK1j_AsNzxJEVWmwfFim-52" value="" style="aspect=fixed;html=1;points=[];align=center;image;fontSize=12;image=img/lib/mscae/WebAppWordPress.svg;" parent="1" vertex="1">
                    <mxGeometry x="975.5" y="353" width="49" height="50" as="geometry"/>
                </mxCell>
                <mxCell id="wK1j_AsNzxJEVWmwfFim-54" value="web" style="rounded=0;whiteSpace=wrap;html=1;fontSize=15;align=center;fillColor=#ffe6cc;strokeColor=#d79b00;" parent="1" vertex="1">
                    <mxGeometry x="895.5" y="218" width="64.5" height="30" as="geometry"/>
                </mxCell>
                <mxCell id="wK1j_AsNzxJEVWmwfFim-53" value="" style="aspect=fixed;pointerEvents=1;shadow=0;dashed=0;html=1;strokeColor=none;labelPosition=center;verticalLabelPosition=bottom;verticalAlign=top;align=center;fillColor=#00188D;shape=mxgraph.mscae.enterprise.web_server;fontSize=15;fontColor=#FFFFFF;" parent="1" vertex="1">
                    <mxGeometry x="862" y="193" width="38" height="50" as="geometry"/>
                </mxCell>
                <mxCell id="wK1j_AsNzxJEVWmwfFim-56" value="" style="aspect=fixed;pointerEvents=1;shadow=0;dashed=0;html=1;strokeColor=none;labelPosition=center;verticalLabelPosition=bottom;verticalAlign=top;align=center;fillColor=#00188D;shape=mxgraph.mscae.enterprise.web_server;fontSize=15;fontColor=#FFFFFF;" parent="1" vertex="1">
                    <mxGeometry x="40" y="150" width="38" height="50" as="geometry"/>
                </mxCell>
                <mxCell id="wK1j_AsNzxJEVWmwfFim-58" value="db" style="rounded=0;whiteSpace=wrap;html=1;fontSize=15;align=center;fillColor=#ffe6cc;strokeColor=#d79b00;" parent="1" vertex="1">
                    <mxGeometry x="900" y="453" width="60" height="30" as="geometry"/>
                </mxCell>
                <mxCell id="wK1j_AsNzxJEVWmwfFim-59" value="pma" style="rounded=0;whiteSpace=wrap;html=1;fontSize=15;align=center;fillColor=#ffe6cc;strokeColor=#d79b00;" parent="1" vertex="1">
                    <mxGeometry x="1180" y="453" width="64.5" height="30" as="geometry"/>
                </mxCell>
                <mxCell id="wK1j_AsNzxJEVWmwfFim-60" value="" style="aspect=fixed;pointerEvents=1;shadow=0;dashed=0;html=1;strokeColor=none;labelPosition=center;verticalLabelPosition=bottom;verticalAlign=top;align=center;fillColor=#00188D;shape=mxgraph.mscae.enterprise.web_server;fontSize=15;fontColor=#FFFFFF;" parent="1" vertex="1">
                    <mxGeometry x="1142" y="423" width="38" height="50" as="geometry"/>
                </mxCell>
                <mxCell id="wK1j_AsNzxJEVWmwfFim-62" value="" style="aspect=fixed;pointerEvents=1;shadow=0;dashed=0;html=1;strokeColor=none;labelPosition=center;verticalLabelPosition=bottom;verticalAlign=top;align=center;fillColor=#00188D;shape=mxgraph.mscae.enterprise.settings;fontSize=15;fontColor=#FFFFFF;" parent="1" vertex="1">
                    <mxGeometry x="97.72" y="443" width="50" height="50" as="geometry"/>
                </mxCell>
                <mxCell id="wK1j_AsNzxJEVWmwfFim-63" value="smtp" style="rounded=0;whiteSpace=wrap;html=1;fontSize=15;align=center;fillColor=#ffe6cc;strokeColor=#d79b00;" parent="1" vertex="1">
                    <mxGeometry x="1180" y="218" width="64.5" height="30" as="geometry"/>
                </mxCell>
                <mxCell id="wK1j_AsNzxJEVWmwfFim-64" value="" style="aspect=fixed;pointerEvents=1;shadow=0;dashed=0;html=1;strokeColor=none;labelPosition=center;verticalLabelPosition=bottom;verticalAlign=top;align=center;fillColor=#00188D;shape=mxgraph.mscae.enterprise.application_server2;fontSize=15;fontColor=#FFFFFF;" parent="1" vertex="1">
                    <mxGeometry x="339.99" y="150" width="43" height="50" as="geometry"/>
                </mxCell>
                <mxCell id="wK1j_AsNzxJEVWmwfFim-65" value="" style="aspect=fixed;html=1;points=[];align=center;image;fontSize=12;image=img/lib/mscae/SQL_Servers.svg;" parent="1" vertex="1">
                    <mxGeometry x="856" y="423" width="50" height="50" as="geometry"/>
                </mxCell>
                <mxCell id="wK1j_AsNzxJEVWmwfFim-66" value="" style="aspect=fixed;pointerEvents=1;shadow=0;dashed=0;html=1;strokeColor=none;labelPosition=center;verticalLabelPosition=bottom;verticalAlign=top;align=center;fillColor=#00188D;shape=mxgraph.azure.message2;fontSize=15;fontColor=#FFFFFF;" parent="1" vertex="1">
                    <mxGeometry x="1136" y="200" width="50" height="37" as="geometry"/>
                </mxCell>
                <mxCell id="wK1j_AsNzxJEVWmwfFim-68" value="" style="aspect=fixed;html=1;points=[];align=center;image;fontSize=12;image=img/lib/mscae/Docker.svg;" parent="1" vertex="1">
                    <mxGeometry x="1084.14" y="650" width="81.71" height="67" as="geometry"/>
                </mxCell>
                <mxCell id="wK1j_AsNzxJEVWmwfFim-70" style="edgeStyle=orthogonalEdgeStyle;rounded=0;orthogonalLoop=1;jettySize=auto;html=1;entryX=0;entryY=0.5;entryDx=0;entryDy=0;fontSize=15;fontColor=#FFFFFF;" parent="1" source="wK1j_AsNzxJEVWmwfFim-69" target="b4y2iu5C6TyIT8BFHeu6-3" edge="1">
                    <mxGeometry relative="1" as="geometry">
                        <Array as="points">
                            <mxPoint x="800" y="760"/>
                            <mxPoint x="800" y="318"/>
                        </Array>
                    </mxGeometry>
                </mxCell>
                <mxCell id="wK1j_AsNzxJEVWmwfFim-69" value="" style="aspect=fixed;pointerEvents=1;shadow=0;dashed=0;html=1;strokeColor=none;labelPosition=center;verticalLabelPosition=bottom;verticalAlign=top;align=center;shape=mxgraph.mscae.enterprise.user_permissions;fillColor=#0078D7;fontSize=15;fontColor=#FFFFFF;" parent="1" vertex="1">
                    <mxGeometry x="1100" y="730" width="47" height="50" as="geometry"/>
                </mxCell>
                <mxCell id="gvx1_nJ1AQDl6GHn_QgL-1" value="" style="rounded=0;whiteSpace=wrap;html=1;fontSize=15;align=center;fillColor=#e1d5e7;strokeColor=#9673a6;" parent="1" vertex="1">
                    <mxGeometry x="40" y="990.5" width="590" height="609.5" as="geometry"/>
                </mxCell>
                <mxCell id="gvx1_nJ1AQDl6GHn_QgL-2" value="" style="rounded=1;whiteSpace=wrap;html=1;fontSize=16;fillColor=#fff2cc;strokeColor=#d6b656;" parent="1" vertex="1">
                    <mxGeometry x="139.99" y="1333.5" width="320" height="196.5" as="geometry"/>
                </mxCell>
                <mxCell id="gvx1_nJ1AQDl6GHn_QgL-3" value="" style="rounded=1;whiteSpace=wrap;html=1;fontSize=16;fillColor=#fff2cc;strokeColor=#d6b656;" parent="1" vertex="1">
                    <mxGeometry x="65.44" y="1050.5" width="200" height="120" as="geometry"/>
                </mxCell>
                <mxCell id="gvx1_nJ1AQDl6GHn_QgL-4" value="" style="aspect=fixed;html=1;points=[];align=center;image;fontSize=12;image=img/lib/mscae/Docker.svg;" parent="1" vertex="1">
                    <mxGeometry x="298.29" y="1587" width="81.71" height="67" as="geometry"/>
                </mxCell>
                <mxCell id="gvx1_nJ1AQDl6GHn_QgL-5" style="edgeStyle=orthogonalEdgeStyle;rounded=0;orthogonalLoop=1;jettySize=auto;html=1;exitX=0;exitY=0.5;exitDx=0;exitDy=0;entryX=-0.009;entryY=0.48;entryDx=0;entryDy=0;entryPerimeter=0;fontSize=15;" parent="1" source="gvx1_nJ1AQDl6GHn_QgL-6" target="gvx1_nJ1AQDl6GHn_QgL-20" edge="1">
                    <mxGeometry relative="1" as="geometry">
                        <Array as="points">
                            <mxPoint x="220" y="1501.5"/>
                            <mxPoint x="50" y="1501.5"/>
                            <mxPoint x="50" y="1132.5"/>
                        </Array>
                    </mxGeometry>
                </mxCell>
                <mxCell id="gvx1_nJ1AQDl6GHn_QgL-6" value="" style="rounded=1;whiteSpace=wrap;html=1;fontSize=16;align=center;fillColor=#d5e8d4;strokeColor=#82b366;" parent="1" vertex="1">
                    <mxGeometry x="220" y="1427.5" width="160" height="152.5" as="geometry"/>
                </mxCell>
                <mxCell id="gvx1_nJ1AQDl6GHn_QgL-7" style="edgeStyle=orthogonalEdgeStyle;rounded=0;orthogonalLoop=1;jettySize=auto;html=1;fontSize=15;entryX=0.767;entryY=0.05;entryDx=0;entryDy=0;entryPerimeter=0;" parent="1" source="gvx1_nJ1AQDl6GHn_QgL-9" target="gvx1_nJ1AQDl6GHn_QgL-15" edge="1">
                    <mxGeometry relative="1" as="geometry">
                        <Array as="points">
                            <mxPoint x="500" y="1384.5"/>
                            <mxPoint x="500" y="1489.5"/>
                        </Array>
                    </mxGeometry>
                </mxCell>
                <mxCell id="gvx1_nJ1AQDl6GHn_QgL-8" style="edgeStyle=orthogonalEdgeStyle;rounded=0;orthogonalLoop=1;jettySize=auto;html=1;entryX=0.1;entryY=0.5;entryDx=0;entryDy=0;entryPerimeter=0;fontSize=15;" parent="1" source="gvx1_nJ1AQDl6GHn_QgL-9" target="gvx1_nJ1AQDl6GHn_QgL-36" edge="1">
                    <mxGeometry relative="1" as="geometry">
                        <Array as="points">
                            <mxPoint x="300" y="1249"/>
                        </Array>
                    </mxGeometry>
                </mxCell>
                <mxCell id="gvx1_nJ1AQDl6GHn_QgL-9" value="image:&lt;br&gt;&amp;nbsp; jrcs/letsencrypt-nginx-proxy-companion" style="text;html=1;strokeColor=none;fillColor=none;align=left;verticalAlign=middle;whiteSpace=wrap;rounded=0;fontSize=15;" parent="1" vertex="1">
                    <mxGeometry x="160" y="1350.5" width="280" height="57" as="geometry"/>
                </mxCell>
                <mxCell id="gvx1_nJ1AQDl6GHn_QgL-10" value="" style="aspect=fixed;pointerEvents=1;shadow=0;dashed=0;html=1;strokeColor=none;labelPosition=center;verticalLabelPosition=bottom;verticalAlign=top;align=center;fillColor=#00188D;shape=mxgraph.mscae.enterprise.shared_folder;fontSize=15;" parent="1" vertex="1">
                    <mxGeometry x="210" y="1407.5" width="43" height="50" as="geometry"/>
                </mxCell>
                <mxCell id="gvx1_nJ1AQDl6GHn_QgL-11" value="letsencrypt" style="rounded=0;whiteSpace=wrap;html=1;fontSize=15;align=center;fillColor=#ffe6cc;strokeColor=#d79b00;" parent="1" vertex="1">
                    <mxGeometry x="160" y="1320.5" width="100" height="30" as="geometry"/>
                </mxCell>
                <mxCell id="gvx1_nJ1AQDl6GHn_QgL-12" style="edgeStyle=orthogonalEdgeStyle;rounded=0;orthogonalLoop=1;jettySize=auto;html=1;entryX=1;entryY=0.5;entryDx=0;entryDy=0;fontSize=15;" parent="1" source="gvx1_nJ1AQDl6GHn_QgL-13" target="gvx1_nJ1AQDl6GHn_QgL-16" edge="1">
                    <mxGeometry relative="1" as="geometry">
                        <Array as="points">
                            <mxPoint x="710" y="1550"/>
                        </Array>
                    </mxGeometry>
                </mxCell>
                <mxCell id="gvx1_nJ1AQDl6GHn_QgL-13" value="" style="aspect=fixed;html=1;points=[];align=center;image;fontSize=12;image=img/lib/mscae/Key_Vaults.svg;" parent="1" vertex="1">
                    <mxGeometry x="686" y="1400.5" width="48" height="50" as="geometry"/>
                </mxCell>
                <mxCell id="gvx1_nJ1AQDl6GHn_QgL-14" value="&lt;span style=&quot;font-size: 16px&quot;&gt;certs&lt;/span&gt;&lt;br style=&quot;font-size: 16px&quot;&gt;&lt;span style=&quot;font-size: 16px&quot;&gt;ボリューム&lt;/span&gt;" style="text;html=1;strokeColor=none;fillColor=none;align=center;verticalAlign=middle;whiteSpace=wrap;rounded=0;fontSize=15;" parent="1" vertex="1">
                    <mxGeometry x="255" y="1434.5" width="90" height="43" as="geometry"/>
                </mxCell>
                <mxCell id="gvx1_nJ1AQDl6GHn_QgL-15" value="default" style="shape=hexagon;perimeter=hexagonPerimeter2;whiteSpace=wrap;html=1;fontSize=15;align=center;fillColor=#dae8fc;strokeColor=#6c8ebf;" parent="1" vertex="1">
                    <mxGeometry x="237.99" y="1487.5" width="120" height="40" as="geometry"/>
                </mxCell>
                <mxCell id="gvx1_nJ1AQDl6GHn_QgL-16" value="SSL keys" style="shape=hexagon;perimeter=hexagonPerimeter2;whiteSpace=wrap;html=1;fontSize=15;align=center;fillColor=#dae8fc;strokeColor=#6c8ebf;" parent="1" vertex="1">
                    <mxGeometry x="240" y="1530" width="120" height="40" as="geometry"/>
                </mxCell>
                <mxCell id="gvx1_nJ1AQDl6GHn_QgL-17" value="自己証明書" style="text;html=1;strokeColor=none;fillColor=none;align=center;verticalAlign=middle;whiteSpace=wrap;rounded=0;fontSize=15;" parent="1" vertex="1">
                    <mxGeometry x="410" y="1434.5" width="90" height="20" as="geometry"/>
                </mxCell>
                <mxCell id="gvx1_nJ1AQDl6GHn_QgL-18" value="nginx-proxy" style="rounded=0;whiteSpace=wrap;html=1;fontSize=15;align=center;fillColor=#ffe6cc;strokeColor=#d79b00;" parent="1" vertex="1">
                    <mxGeometry x="85.44" y="1033.5" width="114.56" height="30" as="geometry"/>
                </mxCell>
                <mxCell id="gvx1_nJ1AQDl6GHn_QgL-19" value="image: jwilder/nginx-proxy" style="text;html=1;strokeColor=none;fillColor=none;align=left;verticalAlign=middle;whiteSpace=wrap;rounded=0;fontSize=15;" parent="1" vertex="1">
                    <mxGeometry x="75.87" y="1063.5" width="179.14" height="30" as="geometry"/>
                </mxCell>
                <mxCell id="gvx1_nJ1AQDl6GHn_QgL-20" value="" style="aspect=fixed;html=1;points=[];align=center;image;fontSize=12;image=img/lib/mscae/Application_Gateway.svg;" parent="1" vertex="1">
                    <mxGeometry x="140.44" y="1108.5" width="50" height="50" as="geometry"/>
                </mxCell>
                <mxCell id="gvx1_nJ1AQDl6GHn_QgL-21" value="SSL化" style="text;html=1;strokeColor=none;fillColor=none;align=center;verticalAlign=middle;whiteSpace=wrap;rounded=0;fontSize=15;" parent="1" vertex="1">
                    <mxGeometry x="140.44" y="1477.5" width="70.01" height="20" as="geometry"/>
                </mxCell>
                <mxCell id="gvx1_nJ1AQDl6GHn_QgL-22" value="" style="aspect=fixed;pointerEvents=1;shadow=0;dashed=0;html=1;strokeColor=none;labelPosition=center;verticalLabelPosition=bottom;verticalAlign=top;align=center;fillColor=#00188D;shape=mxgraph.mscae.enterprise.internet;fontSize=15;" parent="1" vertex="1">
                    <mxGeometry x="127.53999999999999" y="870" width="75.81" height="47" as="geometry"/>
                </mxCell>
                <mxCell id="gvx1_nJ1AQDl6GHn_QgL-23" value="" style="shape=flexArrow;endArrow=classic;html=1;fontSize=15;fillColor=#dae8fc;strokeColor=#6c8ebf;" parent="1" edge="1">
                    <mxGeometry width="50" height="50" relative="1" as="geometry">
                        <mxPoint x="165" y="920" as="sourcePoint"/>
                        <mxPoint x="165.43000000000006" y="1025" as="targetPoint"/>
                    </mxGeometry>
                </mxCell>
                <mxCell id="gvx1_nJ1AQDl6GHn_QgL-24" value="&lt;div&gt;&lt;span&gt;Port:&lt;/span&gt;&lt;/div&gt;&lt;div&gt;&lt;span&gt;&amp;nbsp; - 80: HTTP&lt;/span&gt;&lt;/div&gt;&lt;div&gt;&lt;span&gt;&amp;nbsp; - 443: HTTPS&lt;/span&gt;&lt;/div&gt;" style="text;html=1;strokeColor=none;fillColor=none;align=left;verticalAlign=middle;whiteSpace=wrap;rounded=0;fontSize=15;" parent="1" vertex="1">
                    <mxGeometry x="180" y="927" width="120" height="60" as="geometry"/>
                </mxCell>
                <mxCell id="gvx1_nJ1AQDl6GHn_QgL-25" value="" style="rounded=1;whiteSpace=wrap;html=1;fontSize=16;fillColor=#fff2cc;strokeColor=#d6b656;" parent="1" vertex="1">
                    <mxGeometry x="376.71" y="1050.5" width="220.01" height="269.5" as="geometry"/>
                </mxCell>
                <mxCell id="gvx1_nJ1AQDl6GHn_QgL-26" value="web" style="rounded=0;whiteSpace=wrap;html=1;fontSize=15;align=center;fillColor=#ffe6cc;strokeColor=#d79b00;" parent="1" vertex="1">
                    <mxGeometry x="396.71" y="1033.5" width="63.29" height="30" as="geometry"/>
                </mxCell>
                <mxCell id="gvx1_nJ1AQDl6GHn_QgL-27" value="&lt;font style=&quot;font-size: 12px&quot;&gt;VIRTUAL_HOST&lt;/font&gt;" style="shape=step;perimeter=stepPerimeter;whiteSpace=wrap;html=1;fixedSize=1;fontSize=15;align=center;" parent="1" vertex="1">
                    <mxGeometry x="391.72" y="1158.5" width="190" height="30" as="geometry"/>
                </mxCell>
                <mxCell id="gvx1_nJ1AQDl6GHn_QgL-28" value="&lt;font style=&quot;font-size: 12px&quot;&gt;VIRTUAL_PORT&lt;/font&gt;" style="shape=step;perimeter=stepPerimeter;whiteSpace=wrap;html=1;fixedSize=1;fontSize=15;align=center;" parent="1" vertex="1">
                    <mxGeometry x="391.72" y="1188.5" width="190" height="30" as="geometry"/>
                </mxCell>
                <mxCell id="gvx1_nJ1AQDl6GHn_QgL-29" value="&lt;font style=&quot;font-size: 12px&quot;&gt;LETSENCRYPT_HOST&lt;/font&gt;" style="shape=step;perimeter=stepPerimeter;whiteSpace=wrap;html=1;fixedSize=1;fontSize=15;align=center;" parent="1" vertex="1">
                    <mxGeometry x="391.72" y="1218.5" width="190" height="30" as="geometry"/>
                </mxCell>
                <mxCell id="gvx1_nJ1AQDl6GHn_QgL-30" value="&lt;font style=&quot;font-size: 12px&quot;&gt;LETSENCRYPT_EMAIL&lt;/font&gt;" style="shape=step;perimeter=stepPerimeter;whiteSpace=wrap;html=1;fixedSize=1;fontSize=15;align=center;" parent="1" vertex="1">
                    <mxGeometry x="391.72" y="1248.5" width="190" height="30" as="geometry"/>
                </mxCell>
                <mxCell id="gvx1_nJ1AQDl6GHn_QgL-31" style="edgeStyle=orthogonalEdgeStyle;rounded=0;orthogonalLoop=1;jettySize=auto;html=1;fontSize=15;entryX=1;entryY=0.5;entryDx=0;entryDy=0;" parent="1" source="gvx1_nJ1AQDl6GHn_QgL-32" target="gvx1_nJ1AQDl6GHn_QgL-15" edge="1">
                    <mxGeometry relative="1" as="geometry">
                        <mxPoint x="331" y="1530.5" as="targetPoint"/>
                        <Array as="points">
                            <mxPoint x="620" y="1294"/>
                            <mxPoint x="620" y="1508"/>
                        </Array>
                    </mxGeometry>
                </mxCell>
                <mxCell id="gvx1_nJ1AQDl6GHn_QgL-32" value="&lt;font style=&quot;font-size: 12px&quot;&gt;CERT_NAME&lt;/font&gt;" style="shape=step;perimeter=stepPerimeter;whiteSpace=wrap;html=1;fixedSize=1;fontSize=15;align=center;" parent="1" vertex="1">
                    <mxGeometry x="391.72" y="1278.5" width="190" height="30" as="geometry"/>
                </mxCell>
                <mxCell id="gvx1_nJ1AQDl6GHn_QgL-34" value="" style="shape=curlyBracket;whiteSpace=wrap;html=1;rounded=1;fontSize=15;align=left;" parent="1" vertex="1">
                    <mxGeometry x="362.99" y="1158.5" width="20" height="60" as="geometry"/>
                </mxCell>
                <mxCell id="gvx1_nJ1AQDl6GHn_QgL-36" value="" style="shape=curlyBracket;whiteSpace=wrap;html=1;rounded=1;fontSize=15;align=left;" parent="1" vertex="1">
                    <mxGeometry x="362.15000000000003" y="1218.5" width="20" height="60" as="geometry"/>
                </mxCell>
                <mxCell id="gvx1_nJ1AQDl6GHn_QgL-37" value="対応するドメイン名の&lt;br&gt;無料SSL発行申請" style="text;html=1;strokeColor=none;fillColor=none;align=center;verticalAlign=middle;whiteSpace=wrap;rounded=0;fontSize=15;" parent="1" vertex="1">
                    <mxGeometry x="139.99" y="1228.5" width="160.01" height="40" as="geometry"/>
                </mxCell>
                <mxCell id="gvx1_nJ1AQDl6GHn_QgL-38" value="Let's Encrypt&lt;br&gt;無料SSL発行サービス" style="text;html=1;strokeColor=none;fillColor=none;align=center;verticalAlign=middle;whiteSpace=wrap;rounded=0;fontSize=15;" parent="1" vertex="1">
                    <mxGeometry x="630" y="1350.5" width="160" height="50" as="geometry"/>
                </mxCell>
                <mxCell id="gvx1_nJ1AQDl6GHn_QgL-39" style="edgeStyle=orthogonalEdgeStyle;rounded=0;orthogonalLoop=1;jettySize=auto;html=1;entryX=0.5;entryY=0;entryDx=0;entryDy=0;fontSize=15;" parent="1" source="gvx1_nJ1AQDl6GHn_QgL-40" target="gvx1_nJ1AQDl6GHn_QgL-38" edge="1">
                    <mxGeometry relative="1" as="geometry"/>
                </mxCell>
                <mxCell id="gvx1_nJ1AQDl6GHn_QgL-40" value="" style="shape=curlyBracket;whiteSpace=wrap;html=1;rounded=1;fontSize=15;align=left;flipV=1;flipH=1;" parent="1" vertex="1">
                    <mxGeometry x="590" y="1218.5" width="20" height="60" as="geometry"/>
                </mxCell>
                <mxCell id="gvx1_nJ1AQDl6GHn_QgL-41" value="ローカル開発時は default を指定" style="text;html=1;strokeColor=none;fillColor=none;align=center;verticalAlign=middle;whiteSpace=wrap;rounded=0;fontSize=15;" parent="1" vertex="1">
                    <mxGeometry x="490" y="1320.5" width="130" height="83" as="geometry"/>
                </mxCell>
                <mxCell id="gvx1_nJ1AQDl6GHn_QgL-42" value="無料SSL発行申請" style="text;html=1;strokeColor=none;fillColor=none;align=center;verticalAlign=middle;whiteSpace=wrap;rounded=0;fontSize=15;" parent="1" vertex="1">
                    <mxGeometry x="610" y="1208.5" width="130" height="40" as="geometry"/>
                </mxCell>
                <mxCell id="gvx1_nJ1AQDl6GHn_QgL-43" value="" style="shape=flexArrow;endArrow=classic;html=1;fontSize=15;fillColor=#dae8fc;strokeColor=#6c8ebf;entryX=0.1;entryY=0.5;entryDx=0;entryDy=0;entryPerimeter=0;" parent="1" target="gvx1_nJ1AQDl6GHn_QgL-34" edge="1">
                    <mxGeometry width="50" height="50" relative="1" as="geometry">
                        <mxPoint x="190" y="1133.5" as="sourcePoint"/>
                        <mxPoint x="231.00000000000006" y="1223.5" as="targetPoint"/>
                    </mxGeometry>
                </mxCell>
                <mxCell id="gvx1_nJ1AQDl6GHn_QgL-44" value="" style="aspect=fixed;pointerEvents=1;shadow=0;dashed=0;html=1;strokeColor=none;labelPosition=center;verticalLabelPosition=bottom;verticalAlign=top;align=center;fillColor=#00188D;shape=mxgraph.mscae.enterprise.web_server;fontSize=15;fontColor=#FFFFFF;" parent="1" vertex="1">
                    <mxGeometry x="60" y="1000.5" width="38" height="50" as="geometry"/>
                </mxCell>
                <mxCell id="gvx1_nJ1AQDl6GHn_QgL-45" value="" style="aspect=fixed;pointerEvents=1;shadow=0;dashed=0;html=1;strokeColor=none;labelPosition=center;verticalLabelPosition=bottom;verticalAlign=top;align=center;fillColor=#00188D;shape=mxgraph.mscae.enterprise.settings;fontSize=15;fontColor=#FFFFFF;" parent="1" vertex="1">
                    <mxGeometry x="117.72" y="1293.5" width="50" height="50" as="geometry"/>
                </mxCell>
                <mxCell id="gvx1_nJ1AQDl6GHn_QgL-46" value="" style="aspect=fixed;pointerEvents=1;shadow=0;dashed=0;html=1;strokeColor=none;labelPosition=center;verticalLabelPosition=bottom;verticalAlign=top;align=center;fillColor=#00188D;shape=mxgraph.mscae.enterprise.application_server2;fontSize=15;fontColor=#FFFFFF;" parent="1" vertex="1">
                    <mxGeometry x="359.99" y="1000.5" width="43" height="50" as="geometry"/>
                </mxCell>
                <mxCell id="gvx1_nJ1AQDl6GHn_QgL-47" value="image: php:7.3-apache&lt;br&gt;middlewares:&lt;br&gt;&amp;nbsp; - apache: 2.4.38&lt;br&gt;&amp;nbsp; - php: 7.3.31" style="text;html=1;strokeColor=none;fillColor=none;align=left;verticalAlign=middle;whiteSpace=wrap;rounded=0;fontSize=15;" parent="1" vertex="1">
                    <mxGeometry x="396.71" y="1063.5" width="179.14" height="86.5" as="geometry"/>
                </mxCell>
                <mxCell id="gvx1_nJ1AQDl6GHn_QgL-35" value="http(s)://web.local/ を&lt;br&gt;web コンテナに振り分け" style="text;html=1;strokeColor=none;fillColor=none;align=center;verticalAlign=middle;whiteSpace=wrap;rounded=0;fontSize=15;" parent="1" vertex="1">
                    <mxGeometry x="199.99" y="1100" width="190.01" height="40" as="geometry"/>
                </mxCell>
                <mxCell id="x3pFbklZ0av2xxCAFARM-4" style="edgeStyle=orthogonalEdgeStyle;rounded=0;orthogonalLoop=1;jettySize=auto;html=1;entryX=1;entryY=0.5;entryDx=0;entryDy=0;" parent="1" source="gvx1_nJ1AQDl6GHn_QgL-48" target="x3pFbklZ0av2xxCAFARM-1" edge="1">
                    <mxGeometry relative="1" as="geometry">
                        <Array as="points">
                            <mxPoint x="800" y="1695"/>
                            <mxPoint x="800" y="1120"/>
                        </Array>
                    </mxGeometry>
                </mxCell>
                <mxCell id="gvx1_nJ1AQDl6GHn_QgL-48" value="" style="aspect=fixed;pointerEvents=1;shadow=0;dashed=0;html=1;strokeColor=none;labelPosition=center;verticalLabelPosition=bottom;verticalAlign=top;align=center;shape=mxgraph.mscae.enterprise.user_permissions;fillColor=#0078D7;fontSize=15;fontColor=#FFFFFF;" parent="1" vertex="1">
                    <mxGeometry x="357.99" y="1670" width="47" height="50" as="geometry"/>
                </mxCell>
                <mxCell id="gvx1_nJ1AQDl6GHn_QgL-50" value="&lt;span style=&quot;font-size: 14px&quot;&gt;コンテナ起動時、Docker実行ユーザと webコンテナ内ユーザ&lt;br&gt;（www-data）のユーザIDを合わせてパーミッションを修正&lt;br&gt;&lt;/span&gt;" style="text;html=1;strokeColor=none;fillColor=none;align=center;verticalAlign=middle;whiteSpace=wrap;rounded=0;fontSize=16;" parent="1" vertex="1">
                    <mxGeometry x="403.35999999999996" y="1640" width="393.29" height="50" as="geometry"/>
                </mxCell>
                <mxCell id="x3pFbklZ0av2xxCAFARM-1" value="www-data&lt;br&gt;ボリューム" style="rounded=1;whiteSpace=wrap;html=1;fontSize=16;align=center;fillColor=#d5e8d4;strokeColor=#82b366;" parent="1" vertex="1">
                    <mxGeometry x="570" y="1081.25" width="98.28" height="77.5" as="geometry"/>
                </mxCell>
                <mxCell id="x3pFbklZ0av2xxCAFARM-2" value="" style="aspect=fixed;pointerEvents=1;shadow=0;dashed=0;html=1;strokeColor=none;labelPosition=center;verticalLabelPosition=bottom;verticalAlign=top;align=center;fillColor=#00188D;shape=mxgraph.mscae.enterprise.shared_folder;fontSize=15;" parent="1" vertex="1">
                    <mxGeometry x="558.5" y="1050" width="43" height="50" as="geometry"/>
                </mxCell>
                <mxCell id="x3pFbklZ0av2xxCAFARM-3" value="&lt;font style=&quot;font-size: 15px&quot;&gt;Web公開ディレクトリ&lt;br&gt;= Webアプリ開発ディレクトリ&lt;br&gt;&lt;/font&gt;" style="shape=callout;whiteSpace=wrap;html=1;perimeter=calloutPerimeter;position2=0.46;base=12;size=29;position=0.48;" parent="1" vertex="1">
                    <mxGeometry x="540" y="980" width="240" height="90" as="geometry"/>
                </mxCell>
                <mxCell id="B9NQlhlajvg14uuiPyoT-1" value="jupyter" style="rounded=0;whiteSpace=wrap;html=1;fontSize=15;align=center;fillColor=#ffe6cc;strokeColor=#d79b00;" parent="1" vertex="1">
                    <mxGeometry x="882.5" y="936.75" width="94.5" height="30" as="geometry"/>
                </mxCell>
                <mxCell id="B9NQlhlajvg14uuiPyoT-2" value="image: python:3.7-slim-buster&lt;br style=&quot;font-size: 15px&quot;&gt;middlewares:&lt;br style=&quot;font-size: 15px&quot;&gt;&amp;nbsp; - Python: 3.7&lt;br style=&quot;font-size: 15px&quot;&gt;&amp;nbsp; - Julia: 1.3.1" style="text;html=1;strokeColor=none;fillColor=none;align=left;verticalAlign=top;whiteSpace=wrap;rounded=0;fontSize=15;" parent="1" vertex="1">
                    <mxGeometry x="887" y="971.75" width="230" height="90" as="geometry"/>
                </mxCell>
                <mxCell id="B9NQlhlajvg14uuiPyoT-4" value="" style="aspect=fixed;pointerEvents=1;shadow=0;dashed=0;html=1;strokeColor=none;labelPosition=center;verticalLabelPosition=bottom;verticalAlign=top;align=center;fillColor=#00188D;shape=mxgraph.mscae.enterprise.web_server;fontSize=15;fontColor=#FFFFFF;" parent="1" vertex="1">
                    <mxGeometry x="855" y="901.75" width="38" height="50" as="geometry"/>
                </mxCell>
                <mxCell id="B9NQlhlajvg14uuiPyoT-6" value="./&lt;br&gt;ボリューム" style="rounded=1;whiteSpace=wrap;html=1;fontSize=16;align=center;fillColor=#d5e8d4;strokeColor=#82b366;" parent="1" vertex="1">
                    <mxGeometry x="918.5" y="1093" width="98.28" height="77.5" as="geometry"/>
                </mxCell>
                <mxCell id="B9NQlhlajvg14uuiPyoT-5" value="" style="aspect=fixed;pointerEvents=1;shadow=0;dashed=0;html=1;strokeColor=none;labelPosition=center;verticalLabelPosition=bottom;verticalAlign=top;align=center;fillColor=#00188D;shape=mxgraph.mscae.enterprise.shared_folder;fontSize=15;" parent="1" vertex="1">
                    <mxGeometry x="907" y="1061.75" width="43" height="50" as="geometry"/>
                </mxCell>
                <mxCell id="B9NQlhlajvg14uuiPyoT-7" value="" style="aspect=fixed;pointerEvents=1;shadow=0;dashed=0;html=1;strokeColor=none;labelPosition=center;verticalLabelPosition=bottom;verticalAlign=top;align=center;fillColor=#00188D;shape=mxgraph.azure.script_file" parent="1" vertex="1">
                    <mxGeometry x="1047" y="1055.25" width="47" height="50" as="geometry"/>
                </mxCell>
                <mxCell id="B9NQlhlajvg14uuiPyoT-8" value="JupyterNotebook" style="text;html=1;strokeColor=none;fillColor=none;align=center;verticalAlign=middle;whiteSpace=wrap;rounded=0;fontSize=15;" parent="1" vertex="1">
                    <mxGeometry x="1004" y="1032.25" width="130" height="20" as="geometry"/>
                </mxCell>
                <mxCell id="B9NQlhlajvg14uuiPyoT-9" value="&lt;span style=&quot;font-size: 14px&quot;&gt;コンテナ起動時、Docker実行ユーザと&lt;br&gt;同一IDのコンテナ内ユーザ（jupyter）を&lt;br&gt;作成してパーミッションを修正&lt;br&gt;&lt;/span&gt;" style="text;html=1;strokeColor=none;fillColor=none;align=center;verticalAlign=middle;whiteSpace=wrap;rounded=0;fontSize=16;" parent="1" vertex="1">
                    <mxGeometry x="1079" y="1204" width="272.29" height="71.5" as="geometry"/>
                </mxCell>
                <mxCell id="B9NQlhlajvg14uuiPyoT-11" style="edgeStyle=orthogonalEdgeStyle;rounded=0;orthogonalLoop=1;jettySize=auto;html=1;entryX=1;entryY=0.5;entryDx=0;entryDy=0;fontSize=15;" parent="1" source="B9NQlhlajvg14uuiPyoT-10" target="B9NQlhlajvg14uuiPyoT-6" edge="1">
                    <mxGeometry relative="1" as="geometry"/>
                </mxCell>
                <mxCell id="B9NQlhlajvg14uuiPyoT-10" value="" style="aspect=fixed;pointerEvents=1;shadow=0;dashed=0;html=1;strokeColor=none;labelPosition=center;verticalLabelPosition=bottom;verticalAlign=top;align=center;shape=mxgraph.mscae.enterprise.user_permissions;fillColor=#0078D7;fontSize=15;fontColor=#FFFFFF;" parent="1" vertex="1">
                    <mxGeometry x="1134" y="1283.5" width="47" height="50" as="geometry"/>
                </mxCell>
                <mxCell id="B9NQlhlajvg14uuiPyoT-12" value="" style="aspect=fixed;html=1;points=[];align=center;image;fontSize=12;image=img/lib/mscae/Docker.svg;" parent="1" vertex="1">
                    <mxGeometry x="961.1400000000001" y="1181.5" width="81.71" height="67" as="geometry"/>
                </mxCell>
                <mxCell id="I_hWWfhqEo1-vqWoMxsw-1" value="" style="rounded=0;whiteSpace=wrap;html=1;fontSize=15;fillColor=#e1d5e7;strokeColor=#9673a6;" parent="1" vertex="1">
                    <mxGeometry x="840" y="1360" width="320" height="280" as="geometry"/>
                </mxCell>
                <mxCell id="I_hWWfhqEo1-vqWoMxsw-2" value="" style="rounded=1;whiteSpace=wrap;html=1;fontSize=16;fillColor=#fff2cc;strokeColor=#d6b656;" parent="1" vertex="1">
                    <mxGeometry x="867" y="1434.75" width="280" height="145.25" as="geometry"/>
                </mxCell>
                <mxCell id="I_hWWfhqEo1-vqWoMxsw-3" value="go" style="rounded=0;whiteSpace=wrap;html=1;fontSize=15;align=center;fillColor=#ffe6cc;strokeColor=#d79b00;" parent="1" vertex="1">
                    <mxGeometry x="882.5" y="1419.75" width="67.5" height="30" as="geometry"/>
                </mxCell>
                <mxCell id="I_hWWfhqEo1-vqWoMxsw-4" value="image: golang:alpine" style="text;html=1;strokeColor=none;fillColor=none;align=left;verticalAlign=top;whiteSpace=wrap;rounded=0;fontSize=15;" parent="1" vertex="1">
                    <mxGeometry x="887" y="1454.75" width="230" height="35.25" as="geometry"/>
                </mxCell>
                <mxCell id="I_hWWfhqEo1-vqWoMxsw-6" value="./&lt;br&gt;ボリューム" style="rounded=1;whiteSpace=wrap;html=1;fontSize=16;align=center;fillColor=#d5e8d4;strokeColor=#82b366;" parent="1" vertex="1">
                    <mxGeometry x="919.22" y="1531.25" width="98.28" height="77.5" as="geometry"/>
                </mxCell>
                <mxCell id="I_hWWfhqEo1-vqWoMxsw-7" value="" style="aspect=fixed;pointerEvents=1;shadow=0;dashed=0;html=1;strokeColor=none;labelPosition=center;verticalLabelPosition=bottom;verticalAlign=top;align=center;fillColor=#00188D;shape=mxgraph.mscae.enterprise.shared_folder;fontSize=15;" parent="1" vertex="1">
                    <mxGeometry x="907.72" y="1500" width="43" height="50" as="geometry"/>
                </mxCell>
                <mxCell id="I_hWWfhqEo1-vqWoMxsw-9" value="entrypoint:&lt;span&gt;&amp;nbsp;go&lt;/span&gt;" style="text;html=1;strokeColor=none;fillColor=none;align=right;verticalAlign=middle;whiteSpace=wrap;rounded=0;fontSize=15;" parent="1" vertex="1">
                    <mxGeometry x="1017.5" y="1478.88" width="106" height="35.25" as="geometry"/>
                </mxCell>
                <mxCell id="I_hWWfhqEo1-vqWoMxsw-13" value="" style="aspect=fixed;html=1;points=[];align=center;image;fontSize=12;image=img/lib/mscae/Docker.svg;" parent="1" vertex="1">
                    <mxGeometry x="961.1400000000001" y="1623" width="81.71" height="67" as="geometry"/>
                </mxCell>
                <mxCell id="I_hWWfhqEo1-vqWoMxsw-14" value="" style="aspect=fixed;pointerEvents=1;shadow=0;dashed=0;html=1;strokeColor=none;labelPosition=center;verticalLabelPosition=bottom;verticalAlign=top;align=center;fillColor=#00188D;shape=mxgraph.azure.script_file" parent="1" vertex="1">
                    <mxGeometry x="851" y="1385" width="47" height="50" as="geometry"/>
                </mxCell>
                <mxCell id="I_hWWfhqEo1-vqWoMxsw-15" value="" style="aspect=fixed;html=1;points=[];align=center;image;fontSize=12;image=img/lib/mscae/Quick_Start_Center.svg;" parent="1" vertex="1">
                    <mxGeometry x="1045.5" y="1514.13" width="50" height="50" as="geometry"/>
                </mxCell>
                <mxCell id="I_hWWfhqEo1-vqWoMxsw-17" style="edgeStyle=orthogonalEdgeStyle;rounded=0;orthogonalLoop=1;jettySize=auto;html=1;entryX=1.01;entryY=0.457;entryDx=0;entryDy=0;entryPerimeter=0;" parent="1" source="I_hWWfhqEo1-vqWoMxsw-16" target="I_hWWfhqEo1-vqWoMxsw-15" edge="1">
                    <mxGeometry relative="1" as="geometry">
                        <Array as="points">
                            <mxPoint x="1130" y="1700"/>
                            <mxPoint x="1130" y="1537"/>
                        </Array>
                    </mxGeometry>
                </mxCell>
                <mxCell id="I_hWWfhqEo1-vqWoMxsw-16" value="" style="aspect=fixed;pointerEvents=1;shadow=0;dashed=0;html=1;strokeColor=none;labelPosition=center;verticalLabelPosition=bottom;verticalAlign=top;align=center;fillColor=#00188D;shape=mxgraph.azure.user" parent="1" vertex="1">
                    <mxGeometry x="1053" y="1670" width="47" height="50" as="geometry"/>
                </mxCell>
                <mxCell id="I_hWWfhqEo1-vqWoMxsw-18" value="docker-compose run で go コマンド実行" style="text;html=1;strokeColor=none;fillColor=none;align=center;verticalAlign=middle;whiteSpace=wrap;rounded=0;fontSize=15;" parent="1" vertex="1">
                    <mxGeometry x="1138" y="1650" width="162" height="50" as="geometry"/>
                </mxCell>
                <mxCell id="uKCDe9ddoNZgDHFoBx__-1" value="&lt;span style=&quot;font-size: 14px&quot;&gt;http://localhost:8888/?token=julia&lt;br&gt;&lt;/span&gt;" style="text;html=1;strokeColor=none;fillColor=none;align=center;verticalAlign=middle;whiteSpace=wrap;rounded=0;fontSize=16;" parent="1" vertex="1">
                    <mxGeometry x="1200" y="1065.37" width="240" height="29.75" as="geometry"/>
                </mxCell>
                <mxCell id="uKCDe9ddoNZgDHFoBx__-2" value="" style="shape=flexArrow;endArrow=classic;html=1;exitX=0;exitY=0.5;exitDx=0;exitDy=0;entryX=1;entryY=0.5;entryDx=0;entryDy=0;entryPerimeter=0;fillColor=#dae8fc;strokeColor=#6c8ebf;" parent="1" source="uKCDe9ddoNZgDHFoBx__-1" target="B9NQlhlajvg14uuiPyoT-7" edge="1">
                    <mxGeometry width="50" height="50" relative="1" as="geometry">
                        <mxPoint x="1240" y="980" as="sourcePoint"/>
                        <mxPoint x="1290" y="930" as="targetPoint"/>
                    </mxGeometry>
                </mxCell>
                <mxCell id="nOhWF1fDPpmUyGXy9ADT-3" value="" style="rounded=1;whiteSpace=wrap;html=1;fontSize=16;fillColor=#fff2cc;strokeColor=#d6b656;" parent="1" vertex="1">
                    <mxGeometry x="1619.99" y="504.2" width="320" height="196.5" as="geometry"/>
                </mxCell>
                <mxCell id="nOhWF1fDPpmUyGXy9ADT-4" value="" style="rounded=1;whiteSpace=wrap;html=1;fontSize=16;fillColor=#fff2cc;strokeColor=#d6b656;" parent="1" vertex="1">
                    <mxGeometry x="1545.44" y="221.2" width="200" height="120" as="geometry"/>
                </mxCell>
                <mxCell id="nOhWF1fDPpmUyGXy9ADT-5" value="" style="aspect=fixed;html=1;points=[];align=center;image;fontSize=12;image=img/lib/mscae/Docker.svg;" parent="1" vertex="1">
                    <mxGeometry x="1942.5" y="750.7" width="81.71" height="67" as="geometry"/>
                </mxCell>
                <mxCell id="nOhWF1fDPpmUyGXy9ADT-6" style="edgeStyle=orthogonalEdgeStyle;rounded=0;orthogonalLoop=1;jettySize=auto;html=1;exitX=0;exitY=0.5;exitDx=0;exitDy=0;entryX=-0.009;entryY=0.48;entryDx=0;entryDy=0;entryPerimeter=0;fontSize=15;" parent="1" source="nOhWF1fDPpmUyGXy9ADT-7" target="nOhWF1fDPpmUyGXy9ADT-21" edge="1">
                    <mxGeometry relative="1" as="geometry">
                        <Array as="points">
                            <mxPoint x="1700" y="672.2"/>
                            <mxPoint x="1530" y="672.2"/>
                            <mxPoint x="1530" y="303.2"/>
                        </Array>
                    </mxGeometry>
                </mxCell>
                <mxCell id="nOhWF1fDPpmUyGXy9ADT-7" value="" style="rounded=1;whiteSpace=wrap;html=1;fontSize=16;align=center;fillColor=#d5e8d4;strokeColor=#82b366;" parent="1" vertex="1">
                    <mxGeometry x="1700" y="598.2" width="160" height="152.5" as="geometry"/>
                </mxCell>
                <mxCell id="nOhWF1fDPpmUyGXy9ADT-8" style="edgeStyle=orthogonalEdgeStyle;rounded=0;orthogonalLoop=1;jettySize=auto;html=1;fontSize=15;entryX=0.767;entryY=0.05;entryDx=0;entryDy=0;entryPerimeter=0;" parent="1" source="nOhWF1fDPpmUyGXy9ADT-10" target="nOhWF1fDPpmUyGXy9ADT-16" edge="1">
                    <mxGeometry relative="1" as="geometry">
                        <Array as="points">
                            <mxPoint x="1980" y="555.2"/>
                            <mxPoint x="1980" y="660.2"/>
                        </Array>
                    </mxGeometry>
                </mxCell>
                <mxCell id="nOhWF1fDPpmUyGXy9ADT-9" style="edgeStyle=orthogonalEdgeStyle;rounded=0;orthogonalLoop=1;jettySize=auto;html=1;entryX=0.1;entryY=0.5;entryDx=0;entryDy=0;entryPerimeter=0;fontSize=15;" parent="1" source="nOhWF1fDPpmUyGXy9ADT-10" target="nOhWF1fDPpmUyGXy9ADT-35" edge="1">
                    <mxGeometry relative="1" as="geometry">
                        <Array as="points">
                            <mxPoint x="1780" y="419.7"/>
                        </Array>
                    </mxGeometry>
                </mxCell>
                <mxCell id="nOhWF1fDPpmUyGXy9ADT-10" value="image:&lt;br&gt;&amp;nbsp; jrcs/letsencrypt-nginx-proxy-companion" style="text;html=1;strokeColor=none;fillColor=none;align=left;verticalAlign=middle;whiteSpace=wrap;rounded=0;fontSize=15;" parent="1" vertex="1">
                    <mxGeometry x="1640" y="521.2" width="280" height="57" as="geometry"/>
                </mxCell>
                <mxCell id="nOhWF1fDPpmUyGXy9ADT-11" value="" style="aspect=fixed;pointerEvents=1;shadow=0;dashed=0;html=1;strokeColor=none;labelPosition=center;verticalLabelPosition=bottom;verticalAlign=top;align=center;fillColor=#00188D;shape=mxgraph.mscae.enterprise.shared_folder;fontSize=15;" parent="1" vertex="1">
                    <mxGeometry x="1690" y="578.2" width="43" height="50" as="geometry"/>
                </mxCell>
                <mxCell id="nOhWF1fDPpmUyGXy9ADT-12" value="letsencrypt" style="rounded=0;whiteSpace=wrap;html=1;fontSize=15;align=center;fillColor=#ffe6cc;strokeColor=#d79b00;" parent="1" vertex="1">
                    <mxGeometry x="1640" y="491.2" width="100" height="30" as="geometry"/>
                </mxCell>
                <mxCell id="nOhWF1fDPpmUyGXy9ADT-13" style="edgeStyle=orthogonalEdgeStyle;rounded=0;orthogonalLoop=1;jettySize=auto;html=1;entryX=1;entryY=0.5;entryDx=0;entryDy=0;fontSize=15;" parent="1" source="nOhWF1fDPpmUyGXy9ADT-14" target="nOhWF1fDPpmUyGXy9ADT-17" edge="1">
                    <mxGeometry relative="1" as="geometry">
                        <Array as="points">
                            <mxPoint x="2120" y="721"/>
                            <mxPoint x="2120" y="721"/>
                        </Array>
                    </mxGeometry>
                </mxCell>
                <mxCell id="nOhWF1fDPpmUyGXy9ADT-14" value="" style="aspect=fixed;html=1;points=[];align=center;image;fontSize=12;image=img/lib/mscae/Key_Vaults.svg;" parent="1" vertex="1">
                    <mxGeometry x="2182.72" y="693" width="48" height="50" as="geometry"/>
                </mxCell>
                <mxCell id="nOhWF1fDPpmUyGXy9ADT-15" value="&lt;span style=&quot;font-size: 16px&quot;&gt;certs&lt;/span&gt;&lt;br style=&quot;font-size: 16px&quot;&gt;&lt;span style=&quot;font-size: 16px&quot;&gt;ボリューム&lt;/span&gt;" style="text;html=1;strokeColor=none;fillColor=none;align=center;verticalAlign=middle;whiteSpace=wrap;rounded=0;fontSize=15;" parent="1" vertex="1">
                    <mxGeometry x="1735" y="605.2" width="90" height="43" as="geometry"/>
                </mxCell>
                <mxCell id="nOhWF1fDPpmUyGXy9ADT-16" value="default" style="shape=hexagon;perimeter=hexagonPerimeter2;whiteSpace=wrap;html=1;fontSize=15;align=center;fillColor=#dae8fc;strokeColor=#6c8ebf;" parent="1" vertex="1">
                    <mxGeometry x="1717.99" y="658.2" width="120" height="40" as="geometry"/>
                </mxCell>
                <mxCell id="nOhWF1fDPpmUyGXy9ADT-17" value="SSL keys" style="shape=hexagon;perimeter=hexagonPerimeter2;whiteSpace=wrap;html=1;fontSize=15;align=center;fillColor=#dae8fc;strokeColor=#6c8ebf;" parent="1" vertex="1">
                    <mxGeometry x="1720" y="700.7" width="120" height="40" as="geometry"/>
                </mxCell>
                <mxCell id="nOhWF1fDPpmUyGXy9ADT-18" value="自己証明書" style="text;html=1;strokeColor=none;fillColor=none;align=center;verticalAlign=middle;whiteSpace=wrap;rounded=0;fontSize=15;" parent="1" vertex="1">
                    <mxGeometry x="1890" y="605.2" width="90" height="20" as="geometry"/>
                </mxCell>
                <mxCell id="nOhWF1fDPpmUyGXy9ADT-19" value="nginx-proxy" style="rounded=0;whiteSpace=wrap;html=1;fontSize=15;align=center;fillColor=#ffe6cc;strokeColor=#d79b00;" parent="1" vertex="1">
                    <mxGeometry x="1565.44" y="204.2" width="114.56" height="30" as="geometry"/>
                </mxCell>
                <mxCell id="nOhWF1fDPpmUyGXy9ADT-20" value="image: jwilder/nginx-proxy" style="text;html=1;strokeColor=none;fillColor=none;align=left;verticalAlign=middle;whiteSpace=wrap;rounded=0;fontSize=15;" parent="1" vertex="1">
                    <mxGeometry x="1555.87" y="234.2" width="179.14" height="30" as="geometry"/>
                </mxCell>
                <mxCell id="nOhWF1fDPpmUyGXy9ADT-21" value="" style="aspect=fixed;html=1;points=[];align=center;image;fontSize=12;image=img/lib/mscae/Application_Gateway.svg;" parent="1" vertex="1">
                    <mxGeometry x="1620.44" y="279.2" width="50" height="50" as="geometry"/>
                </mxCell>
                <mxCell id="nOhWF1fDPpmUyGXy9ADT-22" value="SSL化" style="text;html=1;strokeColor=none;fillColor=none;align=center;verticalAlign=middle;whiteSpace=wrap;rounded=0;fontSize=15;" parent="1" vertex="1">
                    <mxGeometry x="1620.44" y="648.2" width="70.01" height="20" as="geometry"/>
                </mxCell>
                <mxCell id="nOhWF1fDPpmUyGXy9ADT-23" value="" style="aspect=fixed;pointerEvents=1;shadow=0;dashed=0;html=1;strokeColor=none;labelPosition=center;verticalLabelPosition=bottom;verticalAlign=top;align=center;fillColor=#00188D;shape=mxgraph.mscae.enterprise.internet;fontSize=15;" parent="1" vertex="1">
                    <mxGeometry x="1607.54" y="40.69999999999999" width="75.81" height="47" as="geometry"/>
                </mxCell>
                <mxCell id="nOhWF1fDPpmUyGXy9ADT-24" value="" style="shape=flexArrow;endArrow=classic;html=1;fontSize=15;fillColor=#dae8fc;strokeColor=#6c8ebf;" parent="1" edge="1">
                    <mxGeometry width="50" height="50" relative="1" as="geometry">
                        <mxPoint x="1645" y="90.69999999999999" as="sourcePoint"/>
                        <mxPoint x="1645.4300000000003" y="195.7" as="targetPoint"/>
                    </mxGeometry>
                </mxCell>
                <mxCell id="nOhWF1fDPpmUyGXy9ADT-25" value="&lt;div&gt;&lt;span&gt;Port:&lt;/span&gt;&lt;/div&gt;&lt;div&gt;&lt;span&gt;&amp;nbsp; - 80: HTTP&lt;/span&gt;&lt;/div&gt;&lt;div&gt;&lt;span&gt;&amp;nbsp; - 443: HTTPS&lt;/span&gt;&lt;/div&gt;" style="text;html=1;strokeColor=none;fillColor=none;align=left;verticalAlign=middle;whiteSpace=wrap;rounded=0;fontSize=15;" parent="1" vertex="1">
                    <mxGeometry x="1660" y="97.69999999999999" width="120" height="60" as="geometry"/>
                </mxCell>
                <mxCell id="nOhWF1fDPpmUyGXy9ADT-26" value="" style="rounded=1;whiteSpace=wrap;html=1;fontSize=16;fillColor=#fff2cc;strokeColor=#d6b656;" parent="1" vertex="1">
                    <mxGeometry x="1856.71" y="221.2" width="253.29" height="269.5" as="geometry"/>
                </mxCell>
                <mxCell id="nOhWF1fDPpmUyGXy9ADT-27" value="web" style="rounded=0;whiteSpace=wrap;html=1;fontSize=15;align=center;fillColor=#ffe6cc;strokeColor=#d79b00;" parent="1" vertex="1">
                    <mxGeometry x="1876.71" y="204.2" width="63.29" height="30" as="geometry"/>
                </mxCell>
                <mxCell id="nOhWF1fDPpmUyGXy9ADT-28" value="&lt;font style=&quot;font-size: 12px&quot;&gt;VIRTUAL_HOST&lt;/font&gt;" style="shape=step;perimeter=stepPerimeter;whiteSpace=wrap;html=1;fixedSize=1;fontSize=15;align=center;" parent="1" vertex="1">
                    <mxGeometry x="1871.72" y="329.2" width="190" height="30" as="geometry"/>
                </mxCell>
                <mxCell id="nOhWF1fDPpmUyGXy9ADT-29" value="&lt;font style=&quot;font-size: 12px&quot;&gt;VIRTUAL_PORT&lt;/font&gt;" style="shape=step;perimeter=stepPerimeter;whiteSpace=wrap;html=1;fixedSize=1;fontSize=15;align=center;" parent="1" vertex="1">
                    <mxGeometry x="1871.72" y="359.2" width="190" height="30" as="geometry"/>
                </mxCell>
                <mxCell id="nOhWF1fDPpmUyGXy9ADT-30" value="&lt;font style=&quot;font-size: 12px&quot;&gt;LETSENCRYPT_HOST&lt;/font&gt;" style="shape=step;perimeter=stepPerimeter;whiteSpace=wrap;html=1;fixedSize=1;fontSize=15;align=center;" parent="1" vertex="1">
                    <mxGeometry x="1871.72" y="389.2" width="190" height="30" as="geometry"/>
                </mxCell>
                <mxCell id="nOhWF1fDPpmUyGXy9ADT-31" value="&lt;font style=&quot;font-size: 12px&quot;&gt;LETSENCRYPT_EMAIL&lt;/font&gt;" style="shape=step;perimeter=stepPerimeter;whiteSpace=wrap;html=1;fixedSize=1;fontSize=15;align=center;" parent="1" vertex="1">
                    <mxGeometry x="1871.72" y="419.2" width="190" height="30" as="geometry"/>
                </mxCell>
                <mxCell id="nOhWF1fDPpmUyGXy9ADT-32" style="edgeStyle=orthogonalEdgeStyle;rounded=0;orthogonalLoop=1;jettySize=auto;html=1;fontSize=15;entryX=1;entryY=0.5;entryDx=0;entryDy=0;" parent="1" source="nOhWF1fDPpmUyGXy9ADT-33" target="nOhWF1fDPpmUyGXy9ADT-16" edge="1">
                    <mxGeometry relative="1" as="geometry">
                        <mxPoint x="1811" y="701.2" as="targetPoint"/>
                        <Array as="points">
                            <mxPoint x="2100" y="464.7"/>
                            <mxPoint x="2100" y="678.7"/>
                        </Array>
                    </mxGeometry>
                </mxCell>
                <mxCell id="nOhWF1fDPpmUyGXy9ADT-33" value="&lt;font style=&quot;font-size: 12px&quot;&gt;CERT_NAME&lt;/font&gt;" style="shape=step;perimeter=stepPerimeter;whiteSpace=wrap;html=1;fixedSize=1;fontSize=15;align=center;" parent="1" vertex="1">
                    <mxGeometry x="1871.72" y="449.2" width="190" height="30" as="geometry"/>
                </mxCell>
                <mxCell id="nOhWF1fDPpmUyGXy9ADT-34" value="" style="shape=curlyBracket;whiteSpace=wrap;html=1;rounded=1;fontSize=15;align=left;" parent="1" vertex="1">
                    <mxGeometry x="1842.99" y="329.2" width="20" height="60" as="geometry"/>
                </mxCell>
                <mxCell id="nOhWF1fDPpmUyGXy9ADT-35" value="" style="shape=curlyBracket;whiteSpace=wrap;html=1;rounded=1;fontSize=15;align=left;" parent="1" vertex="1">
                    <mxGeometry x="1842.15" y="389.2" width="20" height="60" as="geometry"/>
                </mxCell>
                <mxCell id="nOhWF1fDPpmUyGXy9ADT-36" value="対応するドメイン名の&lt;br&gt;無料SSL発行申請" style="text;html=1;strokeColor=none;fillColor=none;align=center;verticalAlign=middle;whiteSpace=wrap;rounded=0;fontSize=15;" parent="1" vertex="1">
                    <mxGeometry x="1619.99" y="399.2" width="160.01" height="40" as="geometry"/>
                </mxCell>
                <mxCell id="nOhWF1fDPpmUyGXy9ADT-37" value="Let's Encrypt&lt;br&gt;無料SSL発行サービス" style="text;html=1;strokeColor=none;fillColor=none;align=center;verticalAlign=middle;whiteSpace=wrap;rounded=0;fontSize=15;" parent="1" vertex="1">
                    <mxGeometry x="2126.72" y="643" width="160" height="50" as="geometry"/>
                </mxCell>
                <mxCell id="nOhWF1fDPpmUyGXy9ADT-38" style="edgeStyle=orthogonalEdgeStyle;rounded=0;orthogonalLoop=1;jettySize=auto;html=1;entryX=0.5;entryY=0;entryDx=0;entryDy=0;fontSize=15;" parent="1" source="nOhWF1fDPpmUyGXy9ADT-39" target="nOhWF1fDPpmUyGXy9ADT-37" edge="1">
                    <mxGeometry relative="1" as="geometry"/>
                </mxCell>
                <mxCell id="nOhWF1fDPpmUyGXy9ADT-39" value="" style="shape=curlyBracket;whiteSpace=wrap;html=1;rounded=1;fontSize=15;align=left;flipV=1;flipH=1;" parent="1" vertex="1">
                    <mxGeometry x="2070" y="389.2" width="20" height="60" as="geometry"/>
                </mxCell>
                <mxCell id="nOhWF1fDPpmUyGXy9ADT-40" value="ローカル開発時は default を指定" style="text;html=1;strokeColor=none;fillColor=none;align=center;verticalAlign=middle;whiteSpace=wrap;rounded=0;fontSize=15;" parent="1" vertex="1">
                    <mxGeometry x="1970" y="491.76" width="130" height="83" as="geometry"/>
                </mxCell>
                <mxCell id="nOhWF1fDPpmUyGXy9ADT-41" value="無料SSL発行申請" style="text;html=1;strokeColor=none;fillColor=none;align=center;verticalAlign=middle;whiteSpace=wrap;rounded=0;fontSize=15;" parent="1" vertex="1">
                    <mxGeometry x="2212.93" y="567" width="130" height="40" as="geometry"/>
                </mxCell>
                <mxCell id="nOhWF1fDPpmUyGXy9ADT-42" value="" style="shape=flexArrow;endArrow=classic;html=1;fontSize=15;fillColor=#dae8fc;strokeColor=#6c8ebf;entryX=0.1;entryY=0.5;entryDx=0;entryDy=0;entryPerimeter=0;" parent="1" target="nOhWF1fDPpmUyGXy9ADT-34" edge="1">
                    <mxGeometry width="50" height="50" relative="1" as="geometry">
                        <mxPoint x="1670" y="304.2" as="sourcePoint"/>
                        <mxPoint x="1711" y="394.2" as="targetPoint"/>
                    </mxGeometry>
                </mxCell>
                <mxCell id="nOhWF1fDPpmUyGXy9ADT-43" value="" style="aspect=fixed;pointerEvents=1;shadow=0;dashed=0;html=1;strokeColor=none;labelPosition=center;verticalLabelPosition=bottom;verticalAlign=top;align=center;fillColor=#00188D;shape=mxgraph.mscae.enterprise.web_server;fontSize=15;fontColor=#FFFFFF;" parent="1" vertex="1">
                    <mxGeometry x="1540" y="171.2" width="38" height="50" as="geometry"/>
                </mxCell>
                <mxCell id="nOhWF1fDPpmUyGXy9ADT-44" value="" style="aspect=fixed;pointerEvents=1;shadow=0;dashed=0;html=1;strokeColor=none;labelPosition=center;verticalLabelPosition=bottom;verticalAlign=top;align=center;fillColor=#00188D;shape=mxgraph.mscae.enterprise.settings;fontSize=15;fontColor=#FFFFFF;" parent="1" vertex="1">
                    <mxGeometry x="1597.72" y="464.2" width="50" height="50" as="geometry"/>
                </mxCell>
                <mxCell id="nOhWF1fDPpmUyGXy9ADT-46" value="image: nginx:1.17-alpine&lt;br&gt;middlewares:&lt;br&gt;&amp;nbsp; - nginx: 1.17" style="text;html=1;strokeColor=none;fillColor=none;align=left;verticalAlign=middle;whiteSpace=wrap;rounded=0;fontSize=15;" parent="1" vertex="1">
                    <mxGeometry x="1885.58" y="234.2" width="179.14" height="86.5" as="geometry"/>
                </mxCell>
                <mxCell id="nOhWF1fDPpmUyGXy9ADT-47" value="http(s)://web.local/ を&lt;br&gt;web コンテナに振り分け" style="text;html=1;strokeColor=none;fillColor=none;align=center;verticalAlign=middle;whiteSpace=wrap;rounded=0;fontSize=15;" parent="1" vertex="1">
                    <mxGeometry x="1679.99" y="270.7" width="190.01" height="40" as="geometry"/>
                </mxCell>
                <mxCell id="nOhWF1fDPpmUyGXy9ADT-63" style="edgeStyle=orthogonalEdgeStyle;rounded=0;orthogonalLoop=1;jettySize=auto;html=1;entryX=0.5;entryY=1;entryDx=0;entryDy=0;" parent="1" source="nOhWF1fDPpmUyGXy9ADT-49" target="nOhWF1fDPpmUyGXy9ADT-51" edge="1">
                    <mxGeometry relative="1" as="geometry"/>
                </mxCell>
                <mxCell id="nOhWF1fDPpmUyGXy9ADT-49" value="" style="aspect=fixed;pointerEvents=1;shadow=0;dashed=0;html=1;strokeColor=none;labelPosition=center;verticalLabelPosition=bottom;verticalAlign=top;align=center;shape=mxgraph.mscae.enterprise.user_permissions;fillColor=#0078D7;fontSize=15;fontColor=#FFFFFF;" parent="1" vertex="1">
                    <mxGeometry x="1840.0000000000002" y="800.7" width="47" height="50" as="geometry"/>
                </mxCell>
                <mxCell id="nOhWF1fDPpmUyGXy9ADT-50" value="&lt;span style=&quot;font-size: 14px&quot;&gt;コンテナ起動時、Docker実行ユーザと&lt;br&gt;pythonコンテナ内ユーザ&lt;br&gt;（www-data）のユーザIDを合わせて&lt;br&gt;パーミッションを修正&lt;br&gt;&lt;/span&gt;" style="text;html=1;strokeColor=none;fillColor=none;align=center;verticalAlign=middle;whiteSpace=wrap;rounded=0;fontSize=16;" parent="1" vertex="1">
                    <mxGeometry x="2118.34" y="770.7" width="251.66" height="90" as="geometry"/>
                </mxCell>
                <mxCell id="nOhWF1fDPpmUyGXy9ADT-51" value="app&lt;br&gt;ボリューム" style="rounded=1;whiteSpace=wrap;html=1;fontSize=16;align=center;fillColor=#d5e8d4;strokeColor=#82b366;" parent="1" vertex="1">
                    <mxGeometry x="2070" y="275.5" width="98.28" height="77.5" as="geometry"/>
                </mxCell>
                <mxCell id="nOhWF1fDPpmUyGXy9ADT-52" value="" style="aspect=fixed;pointerEvents=1;shadow=0;dashed=0;html=1;strokeColor=none;labelPosition=center;verticalLabelPosition=bottom;verticalAlign=top;align=center;fillColor=#00188D;shape=mxgraph.mscae.enterprise.shared_folder;fontSize=15;" parent="1" vertex="1">
                    <mxGeometry x="2097.64" y="237" width="43" height="50" as="geometry"/>
                </mxCell>
                <mxCell id="nOhWF1fDPpmUyGXy9ADT-53" value="&lt;font style=&quot;font-size: 15px&quot;&gt;Webアプリ開発&lt;br&gt;ディレクトリ&lt;br&gt;&lt;/font&gt;" style="shape=callout;whiteSpace=wrap;html=1;perimeter=calloutPerimeter;position2=0.46;base=12;size=29;position=0.48;direction=south;" parent="1" vertex="1">
                    <mxGeometry x="2173.79" y="313" width="176.21" height="70.83" as="geometry"/>
                </mxCell>
                <mxCell id="nOhWF1fDPpmUyGXy9ADT-55" value="image: python:3.7-alpine&lt;br&gt;middlewares:&lt;br&gt;&amp;nbsp; - python: 3.7" style="text;html=1;strokeColor=none;fillColor=none;align=left;verticalAlign=middle;whiteSpace=wrap;rounded=0;fontSize=15;" parent="1" vertex="1">
                    <mxGeometry x="2170.8600000000006" y="236.5" width="179.14" height="86.5" as="geometry"/>
                </mxCell>
                <mxCell id="nOhWF1fDPpmUyGXy9ADT-57" value="python" style="rounded=0;whiteSpace=wrap;html=1;fontSize=15;align=center;fillColor=#ffe6cc;strokeColor=#d79b00;" parent="1" vertex="1">
                    <mxGeometry x="2146.7200000000003" y="206.5" width="63.29" height="30" as="geometry"/>
                </mxCell>
                <mxCell id="nOhWF1fDPpmUyGXy9ADT-58" value="" style="aspect=fixed;pointerEvents=1;shadow=0;dashed=0;html=1;strokeColor=none;labelPosition=center;verticalLabelPosition=bottom;verticalAlign=top;align=center;fillColor=#00188D;shape=mxgraph.mscae.enterprise.application_server2;fontSize=15;fontColor=#FFFFFF;" parent="1" vertex="1">
                    <mxGeometry x="2110" y="173.5" width="43" height="50" as="geometry"/>
                </mxCell>
                <mxCell id="nOhWF1fDPpmUyGXy9ADT-59" value="" style="aspect=fixed;pointerEvents=1;shadow=0;dashed=0;html=1;strokeColor=none;labelPosition=center;verticalLabelPosition=bottom;verticalAlign=top;align=center;fillColor=#00188D;shape=mxgraph.mscae.enterprise.web_server;fontSize=15;fontColor=#FFFFFF;" parent="1" vertex="1">
                    <mxGeometry x="1847.58" y="173.5" width="38" height="50" as="geometry"/>
                </mxCell>
                <mxCell id="nOhWF1fDPpmUyGXy9ADT-61" value="" style="shape=flexArrow;endArrow=classic;html=1;fontSize=15;fillColor=#dae8fc;strokeColor=#6c8ebf;" parent="1" edge="1">
                    <mxGeometry width="50" height="50" relative="1" as="geometry">
                        <mxPoint x="2096.7200000000003" y="393" as="sourcePoint"/>
                        <mxPoint x="2146.7200000000003" y="393" as="targetPoint"/>
                    </mxGeometry>
                </mxCell>
                <mxCell id="nOhWF1fDPpmUyGXy9ADT-62" value="&lt;font style=&quot;font-size: 15px&quot;&gt;nginx で python AP サーバ（WSGIサーバ）に振り分け&lt;br&gt;&lt;/font&gt;" style="shape=callout;whiteSpace=wrap;html=1;perimeter=calloutPerimeter;position2=1;base=14;size=21;position=0.85;direction=west;" parent="1" vertex="1">
                    <mxGeometry x="2146.72" y="408.24" width="223.28" height="83.52" as="geometry"/>
                </mxCell>
                <mxCell id="cPfGwhSYqA-3CiJ5VNB1-1" value="" style="rounded=0;whiteSpace=wrap;html=1;fontSize=15;align=center;fillColor=#e1d5e7;strokeColor=#9673a6;" parent="1" vertex="1">
                    <mxGeometry x="1440" y="1000.5" width="660" height="609.5" as="geometry"/>
                </mxCell>
                <mxCell id="cPfGwhSYqA-3CiJ5VNB1-3" value="" style="rounded=1;whiteSpace=wrap;html=1;fontSize=16;fillColor=#fff2cc;strokeColor=#d6b656;" parent="1" vertex="1">
                    <mxGeometry x="1539.99" y="1343.5" width="320" height="196.5" as="geometry"/>
                </mxCell>
                <mxCell id="cPfGwhSYqA-3CiJ5VNB1-4" value="" style="rounded=1;whiteSpace=wrap;html=1;fontSize=16;fillColor=#fff2cc;strokeColor=#d6b656;" parent="1" vertex="1">
                    <mxGeometry x="1465.4400000000003" y="1060.5" width="200" height="120" as="geometry"/>
                </mxCell>
                <mxCell id="cPfGwhSYqA-3CiJ5VNB1-5" value="" style="aspect=fixed;html=1;points=[];align=center;image;fontSize=12;image=img/lib/mscae/Docker.svg;" parent="1" vertex="1">
                    <mxGeometry x="1745.7200000000003" y="1590" width="81.71" height="67" as="geometry"/>
                </mxCell>
                <mxCell id="cPfGwhSYqA-3CiJ5VNB1-6" style="edgeStyle=orthogonalEdgeStyle;rounded=0;orthogonalLoop=1;jettySize=auto;html=1;exitX=0;exitY=0.5;exitDx=0;exitDy=0;entryX=-0.009;entryY=0.48;entryDx=0;entryDy=0;entryPerimeter=0;fontSize=15;" parent="1" source="cPfGwhSYqA-3CiJ5VNB1-7" target="cPfGwhSYqA-3CiJ5VNB1-21" edge="1">
                    <mxGeometry relative="1" as="geometry">
                        <Array as="points">
                            <mxPoint x="1620.0000000000002" y="1511.5"/>
                            <mxPoint x="1450.0000000000002" y="1511.5"/>
                            <mxPoint x="1450.0000000000002" y="1142.5"/>
                        </Array>
                    </mxGeometry>
                </mxCell>
                <mxCell id="cPfGwhSYqA-3CiJ5VNB1-7" value="" style="rounded=1;whiteSpace=wrap;html=1;fontSize=16;align=center;fillColor=#d5e8d4;strokeColor=#82b366;" parent="1" vertex="1">
                    <mxGeometry x="1620.0000000000002" y="1437.5" width="160" height="152.5" as="geometry"/>
                </mxCell>
                <mxCell id="cPfGwhSYqA-3CiJ5VNB1-8" style="edgeStyle=orthogonalEdgeStyle;rounded=0;orthogonalLoop=1;jettySize=auto;html=1;fontSize=15;entryX=0.767;entryY=0.05;entryDx=0;entryDy=0;entryPerimeter=0;" parent="1" source="cPfGwhSYqA-3CiJ5VNB1-10" target="cPfGwhSYqA-3CiJ5VNB1-16" edge="1">
                    <mxGeometry relative="1" as="geometry">
                        <Array as="points">
                            <mxPoint x="1900.0000000000002" y="1394.5"/>
                            <mxPoint x="1900.0000000000002" y="1499.5"/>
                        </Array>
                    </mxGeometry>
                </mxCell>
                <mxCell id="cPfGwhSYqA-3CiJ5VNB1-9" style="edgeStyle=orthogonalEdgeStyle;rounded=0;orthogonalLoop=1;jettySize=auto;html=1;entryX=0.1;entryY=0.5;entryDx=0;entryDy=0;entryPerimeter=0;fontSize=15;" parent="1" source="cPfGwhSYqA-3CiJ5VNB1-10" target="cPfGwhSYqA-3CiJ5VNB1-35" edge="1">
                    <mxGeometry relative="1" as="geometry">
                        <Array as="points">
                            <mxPoint x="1700.0000000000002" y="1259"/>
                        </Array>
                    </mxGeometry>
                </mxCell>
                <mxCell id="cPfGwhSYqA-3CiJ5VNB1-10" value="image:&lt;br&gt;&amp;nbsp; jrcs/letsencrypt-nginx-proxy-companion" style="text;html=1;strokeColor=none;fillColor=none;align=left;verticalAlign=middle;whiteSpace=wrap;rounded=0;fontSize=15;" parent="1" vertex="1">
                    <mxGeometry x="1560.0000000000002" y="1360.5" width="280" height="57" as="geometry"/>
                </mxCell>
                <mxCell id="cPfGwhSYqA-3CiJ5VNB1-11" value="" style="aspect=fixed;pointerEvents=1;shadow=0;dashed=0;html=1;strokeColor=none;labelPosition=center;verticalLabelPosition=bottom;verticalAlign=top;align=center;fillColor=#00188D;shape=mxgraph.mscae.enterprise.shared_folder;fontSize=15;" parent="1" vertex="1">
                    <mxGeometry x="1610.0000000000002" y="1417.5" width="43" height="50" as="geometry"/>
                </mxCell>
                <mxCell id="cPfGwhSYqA-3CiJ5VNB1-12" value="letsencrypt" style="rounded=0;whiteSpace=wrap;html=1;fontSize=15;align=center;fillColor=#ffe6cc;strokeColor=#d79b00;" parent="1" vertex="1">
                    <mxGeometry x="1560.0000000000002" y="1330.5" width="100" height="30" as="geometry"/>
                </mxCell>
                <mxCell id="cPfGwhSYqA-3CiJ5VNB1-13" style="edgeStyle=orthogonalEdgeStyle;rounded=0;orthogonalLoop=1;jettySize=auto;html=1;entryX=1;entryY=0.5;entryDx=0;entryDy=0;fontSize=15;" parent="1" source="cPfGwhSYqA-3CiJ5VNB1-14" target="cPfGwhSYqA-3CiJ5VNB1-17" edge="1">
                    <mxGeometry relative="1" as="geometry">
                        <Array as="points">
                            <mxPoint x="2040" y="1560.3"/>
                            <mxPoint x="2040" y="1560.3"/>
                        </Array>
                    </mxGeometry>
                </mxCell>
                <mxCell id="cPfGwhSYqA-3CiJ5VNB1-14" value="" style="aspect=fixed;html=1;points=[];align=center;image;fontSize=12;image=img/lib/mscae/Key_Vaults.svg;" parent="1" vertex="1">
                    <mxGeometry x="2158.93" y="1530" width="48" height="50" as="geometry"/>
                </mxCell>
                <mxCell id="cPfGwhSYqA-3CiJ5VNB1-15" value="&lt;span style=&quot;font-size: 16px&quot;&gt;certs&lt;/span&gt;&lt;br style=&quot;font-size: 16px&quot;&gt;&lt;span style=&quot;font-size: 16px&quot;&gt;ボリューム&lt;/span&gt;" style="text;html=1;strokeColor=none;fillColor=none;align=center;verticalAlign=middle;whiteSpace=wrap;rounded=0;fontSize=15;" parent="1" vertex="1">
                    <mxGeometry x="1655.0000000000002" y="1444.5" width="90" height="43" as="geometry"/>
                </mxCell>
                <mxCell id="cPfGwhSYqA-3CiJ5VNB1-16" value="default" style="shape=hexagon;perimeter=hexagonPerimeter2;whiteSpace=wrap;html=1;fontSize=15;align=center;fillColor=#dae8fc;strokeColor=#6c8ebf;" parent="1" vertex="1">
                    <mxGeometry x="1637.99" y="1497.5" width="120" height="40" as="geometry"/>
                </mxCell>
                <mxCell id="cPfGwhSYqA-3CiJ5VNB1-17" value="SSL keys" style="shape=hexagon;perimeter=hexagonPerimeter2;whiteSpace=wrap;html=1;fontSize=15;align=center;fillColor=#dae8fc;strokeColor=#6c8ebf;" parent="1" vertex="1">
                    <mxGeometry x="1640.0000000000002" y="1540" width="120" height="40" as="geometry"/>
                </mxCell>
                <mxCell id="cPfGwhSYqA-3CiJ5VNB1-18" value="自己証明書" style="text;html=1;strokeColor=none;fillColor=none;align=center;verticalAlign=middle;whiteSpace=wrap;rounded=0;fontSize=15;" parent="1" vertex="1">
                    <mxGeometry x="1810.0000000000002" y="1444.5" width="90" height="20" as="geometry"/>
                </mxCell>
                <mxCell id="cPfGwhSYqA-3CiJ5VNB1-19" value="nginx-proxy" style="rounded=0;whiteSpace=wrap;html=1;fontSize=15;align=center;fillColor=#ffe6cc;strokeColor=#d79b00;" parent="1" vertex="1">
                    <mxGeometry x="1485.4400000000003" y="1043.5" width="114.56" height="30" as="geometry"/>
                </mxCell>
                <mxCell id="cPfGwhSYqA-3CiJ5VNB1-20" value="image: jwilder/nginx-proxy" style="text;html=1;strokeColor=none;fillColor=none;align=left;verticalAlign=middle;whiteSpace=wrap;rounded=0;fontSize=15;" parent="1" vertex="1">
                    <mxGeometry x="1475.8700000000001" y="1073.5" width="179.14" height="30" as="geometry"/>
                </mxCell>
                <mxCell id="cPfGwhSYqA-3CiJ5VNB1-21" value="" style="aspect=fixed;html=1;points=[];align=center;image;fontSize=12;image=img/lib/mscae/Application_Gateway.svg;" parent="1" vertex="1">
                    <mxGeometry x="1540.4400000000003" y="1118.5" width="50" height="50" as="geometry"/>
                </mxCell>
                <mxCell id="cPfGwhSYqA-3CiJ5VNB1-22" value="SSL化" style="text;html=1;strokeColor=none;fillColor=none;align=center;verticalAlign=middle;whiteSpace=wrap;rounded=0;fontSize=15;" parent="1" vertex="1">
                    <mxGeometry x="1540.4400000000003" y="1487.5" width="70.01" height="20" as="geometry"/>
                </mxCell>
                <mxCell id="cPfGwhSYqA-3CiJ5VNB1-23" value="" style="aspect=fixed;pointerEvents=1;shadow=0;dashed=0;html=1;strokeColor=none;labelPosition=center;verticalLabelPosition=bottom;verticalAlign=top;align=center;fillColor=#00188D;shape=mxgraph.mscae.enterprise.internet;fontSize=15;" parent="1" vertex="1">
                    <mxGeometry x="1527.5400000000002" y="880" width="75.81" height="47" as="geometry"/>
                </mxCell>
                <mxCell id="cPfGwhSYqA-3CiJ5VNB1-24" value="" style="shape=flexArrow;endArrow=classic;html=1;fontSize=15;fillColor=#dae8fc;strokeColor=#6c8ebf;" parent="1" edge="1">
                    <mxGeometry width="50" height="50" relative="1" as="geometry">
                        <mxPoint x="1565.0000000000002" y="930" as="sourcePoint"/>
                        <mxPoint x="1565.4300000000005" y="1035" as="targetPoint"/>
                    </mxGeometry>
                </mxCell>
                <mxCell id="cPfGwhSYqA-3CiJ5VNB1-25" value="&lt;div&gt;&lt;span&gt;Port:&lt;/span&gt;&lt;/div&gt;&lt;div&gt;&lt;span&gt;&amp;nbsp; - 80: HTTP&lt;/span&gt;&lt;/div&gt;&lt;div&gt;&lt;span&gt;&amp;nbsp; - 443: HTTPS&lt;/span&gt;&lt;/div&gt;" style="text;html=1;strokeColor=none;fillColor=none;align=left;verticalAlign=middle;whiteSpace=wrap;rounded=0;fontSize=15;" parent="1" vertex="1">
                    <mxGeometry x="1580.0000000000002" y="937" width="120" height="60" as="geometry"/>
                </mxCell>
                <mxCell id="cPfGwhSYqA-3CiJ5VNB1-26" value="" style="rounded=1;whiteSpace=wrap;html=1;fontSize=16;fillColor=#fff2cc;strokeColor=#d6b656;" parent="1" vertex="1">
                    <mxGeometry x="1776.7100000000003" y="1060.5" width="253.29" height="269.5" as="geometry"/>
                </mxCell>
                <mxCell id="cPfGwhSYqA-3CiJ5VNB1-27" value="express" style="rounded=0;whiteSpace=wrap;html=1;fontSize=15;align=center;fillColor=#ffe6cc;strokeColor=#d79b00;" parent="1" vertex="1">
                    <mxGeometry x="1796.71" y="1043.5" width="83.29" height="30" as="geometry"/>
                </mxCell>
                <mxCell id="cPfGwhSYqA-3CiJ5VNB1-28" value="&lt;font style=&quot;font-size: 12px&quot;&gt;VIRTUAL_HOST&lt;/font&gt;" style="shape=step;perimeter=stepPerimeter;whiteSpace=wrap;html=1;fixedSize=1;fontSize=15;align=center;" parent="1" vertex="1">
                    <mxGeometry x="1791.72" y="1168.5" width="190" height="30" as="geometry"/>
                </mxCell>
                <mxCell id="cPfGwhSYqA-3CiJ5VNB1-29" value="&lt;font style=&quot;font-size: 12px&quot;&gt;VIRTUAL_PORT&lt;/font&gt;" style="shape=step;perimeter=stepPerimeter;whiteSpace=wrap;html=1;fixedSize=1;fontSize=15;align=center;" parent="1" vertex="1">
                    <mxGeometry x="1791.72" y="1198.5" width="190" height="30" as="geometry"/>
                </mxCell>
                <mxCell id="cPfGwhSYqA-3CiJ5VNB1-30" value="&lt;font style=&quot;font-size: 12px&quot;&gt;LETSENCRYPT_HOST&lt;/font&gt;" style="shape=step;perimeter=stepPerimeter;whiteSpace=wrap;html=1;fixedSize=1;fontSize=15;align=center;" parent="1" vertex="1">
                    <mxGeometry x="1791.72" y="1228.5" width="190" height="30" as="geometry"/>
                </mxCell>
                <mxCell id="cPfGwhSYqA-3CiJ5VNB1-31" value="&lt;font style=&quot;font-size: 12px&quot;&gt;LETSENCRYPT_EMAIL&lt;/font&gt;" style="shape=step;perimeter=stepPerimeter;whiteSpace=wrap;html=1;fixedSize=1;fontSize=15;align=center;" parent="1" vertex="1">
                    <mxGeometry x="1791.72" y="1258.5" width="190" height="30" as="geometry"/>
                </mxCell>
                <mxCell id="cPfGwhSYqA-3CiJ5VNB1-32" style="edgeStyle=orthogonalEdgeStyle;rounded=0;orthogonalLoop=1;jettySize=auto;html=1;fontSize=15;entryX=1;entryY=0.5;entryDx=0;entryDy=0;" parent="1" source="cPfGwhSYqA-3CiJ5VNB1-33" target="cPfGwhSYqA-3CiJ5VNB1-16" edge="1">
                    <mxGeometry relative="1" as="geometry">
                        <mxPoint x="1731.0000000000002" y="1540.5" as="targetPoint"/>
                        <Array as="points">
                            <mxPoint x="2020.0000000000002" y="1304"/>
                            <mxPoint x="2020.0000000000002" y="1518"/>
                        </Array>
                    </mxGeometry>
                </mxCell>
                <mxCell id="cPfGwhSYqA-3CiJ5VNB1-33" value="&lt;font style=&quot;font-size: 12px&quot;&gt;CERT_NAME&lt;/font&gt;" style="shape=step;perimeter=stepPerimeter;whiteSpace=wrap;html=1;fixedSize=1;fontSize=15;align=center;" parent="1" vertex="1">
                    <mxGeometry x="1791.72" y="1288.5" width="190" height="30" as="geometry"/>
                </mxCell>
                <mxCell id="cPfGwhSYqA-3CiJ5VNB1-34" value="" style="shape=curlyBracket;whiteSpace=wrap;html=1;rounded=1;fontSize=15;align=left;" parent="1" vertex="1">
                    <mxGeometry x="1762.99" y="1168.5" width="20" height="60" as="geometry"/>
                </mxCell>
                <mxCell id="cPfGwhSYqA-3CiJ5VNB1-35" value="" style="shape=curlyBracket;whiteSpace=wrap;html=1;rounded=1;fontSize=15;align=left;" parent="1" vertex="1">
                    <mxGeometry x="1762.1500000000003" y="1228.5" width="20" height="60" as="geometry"/>
                </mxCell>
                <mxCell id="cPfGwhSYqA-3CiJ5VNB1-36" value="対応するドメイン名の&lt;br&gt;無料SSL発行申請" style="text;html=1;strokeColor=none;fillColor=none;align=center;verticalAlign=middle;whiteSpace=wrap;rounded=0;fontSize=15;" parent="1" vertex="1">
                    <mxGeometry x="1539.99" y="1238.5" width="160.01" height="40" as="geometry"/>
                </mxCell>
                <mxCell id="cPfGwhSYqA-3CiJ5VNB1-37" value="Let's Encrypt&lt;br&gt;無料SSL発行サービス" style="text;html=1;strokeColor=none;fillColor=none;align=center;verticalAlign=middle;whiteSpace=wrap;rounded=0;fontSize=15;" parent="1" vertex="1">
                    <mxGeometry x="2102.93" y="1480" width="160" height="50" as="geometry"/>
                </mxCell>
                <mxCell id="cPfGwhSYqA-3CiJ5VNB1-38" style="edgeStyle=orthogonalEdgeStyle;rounded=0;orthogonalLoop=1;jettySize=auto;html=1;entryX=0.5;entryY=0;entryDx=0;entryDy=0;fontSize=15;" parent="1" source="cPfGwhSYqA-3CiJ5VNB1-39" target="cPfGwhSYqA-3CiJ5VNB1-37" edge="1">
                    <mxGeometry relative="1" as="geometry"/>
                </mxCell>
                <mxCell id="cPfGwhSYqA-3CiJ5VNB1-39" value="" style="shape=curlyBracket;whiteSpace=wrap;html=1;rounded=1;fontSize=15;align=left;flipV=1;flipH=1;" parent="1" vertex="1">
                    <mxGeometry x="1990.0000000000002" y="1228.5" width="20" height="60" as="geometry"/>
                </mxCell>
                <mxCell id="cPfGwhSYqA-3CiJ5VNB1-40" value="ローカル開発時は default を指定" style="text;html=1;strokeColor=none;fillColor=none;align=center;verticalAlign=middle;whiteSpace=wrap;rounded=0;fontSize=15;" parent="1" vertex="1">
                    <mxGeometry x="1890" y="1333.5" width="130" height="55.5" as="geometry"/>
                </mxCell>
                <mxCell id="cPfGwhSYqA-3CiJ5VNB1-41" value="無料SSL発行申請" style="text;html=1;strokeColor=none;fillColor=none;align=center;verticalAlign=middle;whiteSpace=wrap;rounded=0;fontSize=15;" parent="1" vertex="1">
                    <mxGeometry x="2102.93" y="1220" width="130" height="40" as="geometry"/>
                </mxCell>
                <mxCell id="cPfGwhSYqA-3CiJ5VNB1-42" value="" style="shape=flexArrow;endArrow=classic;html=1;fontSize=15;fillColor=#dae8fc;strokeColor=#6c8ebf;entryX=0.1;entryY=0.5;entryDx=0;entryDy=0;entryPerimeter=0;" parent="1" target="cPfGwhSYqA-3CiJ5VNB1-34" edge="1">
                    <mxGeometry width="50" height="50" relative="1" as="geometry">
                        <mxPoint x="1590.0000000000002" y="1143.5" as="sourcePoint"/>
                        <mxPoint x="1631.0000000000002" y="1233.5" as="targetPoint"/>
                    </mxGeometry>
                </mxCell>
                <mxCell id="cPfGwhSYqA-3CiJ5VNB1-43" value="" style="aspect=fixed;pointerEvents=1;shadow=0;dashed=0;html=1;strokeColor=none;labelPosition=center;verticalLabelPosition=bottom;verticalAlign=top;align=center;fillColor=#00188D;shape=mxgraph.mscae.enterprise.web_server;fontSize=15;fontColor=#FFFFFF;" parent="1" vertex="1">
                    <mxGeometry x="1460.0000000000002" y="1010.5" width="38" height="50" as="geometry"/>
                </mxCell>
                <mxCell id="cPfGwhSYqA-3CiJ5VNB1-44" value="" style="aspect=fixed;pointerEvents=1;shadow=0;dashed=0;html=1;strokeColor=none;labelPosition=center;verticalLabelPosition=bottom;verticalAlign=top;align=center;fillColor=#00188D;shape=mxgraph.mscae.enterprise.settings;fontSize=15;fontColor=#FFFFFF;" parent="1" vertex="1">
                    <mxGeometry x="1517.72" y="1303.5" width="50" height="50" as="geometry"/>
                </mxCell>
                <mxCell id="cPfGwhSYqA-3CiJ5VNB1-45" value="image: node:12-alpine3.11&lt;br&gt;middlewares:&lt;br&gt;&amp;nbsp; - node.js: 12.x.x" style="text;html=1;strokeColor=none;fillColor=none;align=left;verticalAlign=middle;whiteSpace=wrap;rounded=0;fontSize=15;" parent="1" vertex="1">
                    <mxGeometry x="1805.58" y="1073.5" width="194.42" height="86.5" as="geometry"/>
                </mxCell>
                <mxCell id="cPfGwhSYqA-3CiJ5VNB1-46" value="http(s)://web.local/ を&lt;br&gt;web コンテナに振り分け" style="text;html=1;strokeColor=none;fillColor=none;align=center;verticalAlign=middle;whiteSpace=wrap;rounded=0;fontSize=15;" parent="1" vertex="1">
                    <mxGeometry x="1599.99" y="1110" width="190.01" height="40" as="geometry"/>
                </mxCell>
                <mxCell id="cPfGwhSYqA-3CiJ5VNB1-47" style="edgeStyle=orthogonalEdgeStyle;rounded=0;orthogonalLoop=1;jettySize=auto;html=1;entryX=0.5;entryY=1;entryDx=0;entryDy=0;" parent="1" source="cPfGwhSYqA-3CiJ5VNB1-48" target="cPfGwhSYqA-3CiJ5VNB1-50" edge="1">
                    <mxGeometry relative="1" as="geometry"/>
                </mxCell>
                <mxCell id="cPfGwhSYqA-3CiJ5VNB1-48" value="" style="aspect=fixed;pointerEvents=1;shadow=0;dashed=0;html=1;strokeColor=none;labelPosition=center;verticalLabelPosition=bottom;verticalAlign=top;align=center;shape=mxgraph.mscae.enterprise.user_permissions;fillColor=#0078D7;fontSize=15;fontColor=#FFFFFF;" parent="1" vertex="1">
                    <mxGeometry x="1862.1500000000003" y="1630" width="47" height="50" as="geometry"/>
                </mxCell>
                <mxCell id="cPfGwhSYqA-3CiJ5VNB1-49" value="&lt;span style=&quot;font-size: 14px&quot;&gt;コンテナ起動時、Docker実行ユーザと&lt;br&gt;expressコンテナ内ユーザ&lt;br&gt;（node）のユーザIDを合わせて&lt;br&gt;パーミッションを修正&lt;br&gt;&lt;/span&gt;" style="text;html=1;strokeColor=none;fillColor=none;align=center;verticalAlign=middle;whiteSpace=wrap;rounded=0;fontSize=16;" parent="1" vertex="1">
                    <mxGeometry x="2038.3400000000001" y="1610" width="251.66" height="90" as="geometry"/>
                </mxCell>
                <mxCell id="cPfGwhSYqA-3CiJ5VNB1-50" value="app&lt;br&gt;ボリューム" style="rounded=1;whiteSpace=wrap;html=1;fontSize=16;align=center;fillColor=#d5e8d4;strokeColor=#82b366;" parent="1" vertex="1">
                    <mxGeometry x="1990.0000000000002" y="1114.8" width="98.28" height="77.5" as="geometry"/>
                </mxCell>
                <mxCell id="cPfGwhSYqA-3CiJ5VNB1-51" value="" style="aspect=fixed;pointerEvents=1;shadow=0;dashed=0;html=1;strokeColor=none;labelPosition=center;verticalLabelPosition=bottom;verticalAlign=top;align=center;fillColor=#00188D;shape=mxgraph.mscae.enterprise.shared_folder;fontSize=15;" parent="1" vertex="1">
                    <mxGeometry x="2017.64" y="1076.3" width="43" height="50" as="geometry"/>
                </mxCell>
                <mxCell id="cPfGwhSYqA-3CiJ5VNB1-52" value="&lt;font style=&quot;font-size: 15px&quot;&gt;Webアプリ開発&lt;br&gt;ディレクトリ&lt;br&gt;&lt;/font&gt;" style="shape=callout;whiteSpace=wrap;html=1;perimeter=calloutPerimeter;position2=0.46;base=12;size=29;position=0.48;direction=south;" parent="1" vertex="1">
                    <mxGeometry x="2094.83" y="1129.1699999999998" width="176.21" height="70.83" as="geometry"/>
                </mxCell>
                <mxCell id="cPfGwhSYqA-3CiJ5VNB1-56" value="" style="aspect=fixed;pointerEvents=1;shadow=0;dashed=0;html=1;strokeColor=none;labelPosition=center;verticalLabelPosition=bottom;verticalAlign=top;align=center;fillColor=#00188D;shape=mxgraph.mscae.enterprise.web_server;fontSize=15;fontColor=#FFFFFF;" parent="1" vertex="1">
                    <mxGeometry x="1767.5800000000002" y="1012.8" width="38" height="50" as="geometry"/>
                </mxCell>
                <mxCell id="u0o78SNe3BMZUImaw-QG-1" value="" style="rounded=0;whiteSpace=wrap;html=1;fontSize=15;align=center;fillColor=#e1d5e7;strokeColor=#9673a6;" parent="1" vertex="1">
                    <mxGeometry x="41.68" y="1880.5" width="1138.32" height="609.5" as="geometry"/>
                </mxCell>
                <mxCell id="u0o78SNe3BMZUImaw-QG-2" value="" style="rounded=1;whiteSpace=wrap;html=1;fontSize=16;fillColor=#fff2cc;strokeColor=#d6b656;" parent="1" vertex="1">
                    <mxGeometry x="141.67000000000002" y="2223.5" width="320" height="196.5" as="geometry"/>
                </mxCell>
                <mxCell id="u0o78SNe3BMZUImaw-QG-3" value="" style="rounded=1;whiteSpace=wrap;html=1;fontSize=16;fillColor=#fff2cc;strokeColor=#d6b656;" parent="1" vertex="1">
                    <mxGeometry x="67.11999999999999" y="1940.5" width="200" height="120" as="geometry"/>
                </mxCell>
                <mxCell id="u0o78SNe3BMZUImaw-QG-4" value="" style="aspect=fixed;html=1;points=[];align=center;image;fontSize=12;image=img/lib/mscae/Docker.svg;" parent="1" vertex="1">
                    <mxGeometry x="299.96999999999997" y="2477" width="81.71" height="67" as="geometry"/>
                </mxCell>
                <mxCell id="u0o78SNe3BMZUImaw-QG-5" style="edgeStyle=orthogonalEdgeStyle;rounded=0;orthogonalLoop=1;jettySize=auto;html=1;exitX=0;exitY=0.5;exitDx=0;exitDy=0;entryX=-0.009;entryY=0.48;entryDx=0;entryDy=0;entryPerimeter=0;fontSize=15;" parent="1" source="u0o78SNe3BMZUImaw-QG-6" target="u0o78SNe3BMZUImaw-QG-20" edge="1">
                    <mxGeometry relative="1" as="geometry">
                        <Array as="points">
                            <mxPoint x="221.68" y="2391.5"/>
                            <mxPoint x="51.68" y="2391.5"/>
                            <mxPoint x="51.68" y="2022.5"/>
                        </Array>
                    </mxGeometry>
                </mxCell>
                <mxCell id="u0o78SNe3BMZUImaw-QG-6" value="" style="rounded=1;whiteSpace=wrap;html=1;fontSize=16;align=center;fillColor=#d5e8d4;strokeColor=#82b366;" parent="1" vertex="1">
                    <mxGeometry x="221.68" y="2317.5" width="160" height="152.5" as="geometry"/>
                </mxCell>
                <mxCell id="u0o78SNe3BMZUImaw-QG-7" style="edgeStyle=orthogonalEdgeStyle;rounded=0;orthogonalLoop=1;jettySize=auto;html=1;fontSize=15;entryX=0.767;entryY=0.05;entryDx=0;entryDy=0;entryPerimeter=0;" parent="1" source="u0o78SNe3BMZUImaw-QG-9" target="u0o78SNe3BMZUImaw-QG-15" edge="1">
                    <mxGeometry relative="1" as="geometry">
                        <Array as="points">
                            <mxPoint x="501.67999999999995" y="2274.5"/>
                            <mxPoint x="501.67999999999995" y="2379.5"/>
                        </Array>
                    </mxGeometry>
                </mxCell>
                <mxCell id="u0o78SNe3BMZUImaw-QG-8" style="edgeStyle=orthogonalEdgeStyle;rounded=0;orthogonalLoop=1;jettySize=auto;html=1;entryX=0.1;entryY=0.5;entryDx=0;entryDy=0;entryPerimeter=0;fontSize=15;" parent="1" source="u0o78SNe3BMZUImaw-QG-9" target="u0o78SNe3BMZUImaw-QG-34" edge="1">
                    <mxGeometry relative="1" as="geometry">
                        <Array as="points">
                            <mxPoint x="301.67999999999995" y="2139"/>
                        </Array>
                    </mxGeometry>
                </mxCell>
                <mxCell id="u0o78SNe3BMZUImaw-QG-9" value="image:&lt;br&gt;&amp;nbsp; jrcs/letsencrypt-nginx-proxy-companion" style="text;html=1;strokeColor=none;fillColor=none;align=left;verticalAlign=middle;whiteSpace=wrap;rounded=0;fontSize=15;" parent="1" vertex="1">
                    <mxGeometry x="161.68" y="2240.5" width="280" height="57" as="geometry"/>
                </mxCell>
                <mxCell id="u0o78SNe3BMZUImaw-QG-10" value="" style="aspect=fixed;pointerEvents=1;shadow=0;dashed=0;html=1;strokeColor=none;labelPosition=center;verticalLabelPosition=bottom;verticalAlign=top;align=center;fillColor=#00188D;shape=mxgraph.mscae.enterprise.shared_folder;fontSize=15;" parent="1" vertex="1">
                    <mxGeometry x="211.68" y="2297.5" width="43" height="50" as="geometry"/>
                </mxCell>
                <mxCell id="u0o78SNe3BMZUImaw-QG-11" value="letsencrypt" style="rounded=0;whiteSpace=wrap;html=1;fontSize=15;align=center;fillColor=#ffe6cc;strokeColor=#d79b00;" parent="1" vertex="1">
                    <mxGeometry x="161.68" y="2210.5" width="100" height="30" as="geometry"/>
                </mxCell>
                <mxCell id="u0o78SNe3BMZUImaw-QG-12" style="edgeStyle=orthogonalEdgeStyle;rounded=0;orthogonalLoop=1;jettySize=auto;html=1;entryX=1;entryY=0.5;entryDx=0;entryDy=0;fontSize=15;" parent="1" source="u0o78SNe3BMZUImaw-QG-13" target="u0o78SNe3BMZUImaw-QG-16" edge="1">
                    <mxGeometry relative="1" as="geometry">
                        <Array as="points">
                            <mxPoint x="1260" y="2440"/>
                        </Array>
                    </mxGeometry>
                </mxCell>
                <mxCell id="u0o78SNe3BMZUImaw-QG-13" value="" style="aspect=fixed;html=1;points=[];align=center;image;fontSize=12;image=img/lib/mscae/Key_Vaults.svg;" parent="1" vertex="1">
                    <mxGeometry x="1237" y="2297.5" width="48" height="50" as="geometry"/>
                </mxCell>
                <mxCell id="u0o78SNe3BMZUImaw-QG-14" value="&lt;span style=&quot;font-size: 16px&quot;&gt;certs&lt;/span&gt;&lt;br style=&quot;font-size: 16px&quot;&gt;&lt;span style=&quot;font-size: 16px&quot;&gt;ボリューム&lt;/span&gt;" style="text;html=1;strokeColor=none;fillColor=none;align=center;verticalAlign=middle;whiteSpace=wrap;rounded=0;fontSize=15;" parent="1" vertex="1">
                    <mxGeometry x="256.68" y="2324.5" width="90" height="43" as="geometry"/>
                </mxCell>
                <mxCell id="u0o78SNe3BMZUImaw-QG-15" value="default" style="shape=hexagon;perimeter=hexagonPerimeter2;whiteSpace=wrap;html=1;fontSize=15;align=center;fillColor=#dae8fc;strokeColor=#6c8ebf;" parent="1" vertex="1">
                    <mxGeometry x="239.67000000000002" y="2377.5" width="120" height="40" as="geometry"/>
                </mxCell>
                <mxCell id="u0o78SNe3BMZUImaw-QG-16" value="SSL keys" style="shape=hexagon;perimeter=hexagonPerimeter2;whiteSpace=wrap;html=1;fontSize=15;align=center;fillColor=#dae8fc;strokeColor=#6c8ebf;" parent="1" vertex="1">
                    <mxGeometry x="241.68" y="2420" width="120" height="40" as="geometry"/>
                </mxCell>
                <mxCell id="u0o78SNe3BMZUImaw-QG-17" value="自己証明書" style="text;html=1;strokeColor=none;fillColor=none;align=center;verticalAlign=middle;whiteSpace=wrap;rounded=0;fontSize=15;" parent="1" vertex="1">
                    <mxGeometry x="411.67999999999995" y="2324.5" width="90" height="20" as="geometry"/>
                </mxCell>
                <mxCell id="u0o78SNe3BMZUImaw-QG-18" value="nginx-proxy" style="rounded=0;whiteSpace=wrap;html=1;fontSize=15;align=center;fillColor=#ffe6cc;strokeColor=#d79b00;" parent="1" vertex="1">
                    <mxGeometry x="87.12" y="1923.5" width="114.56" height="30" as="geometry"/>
                </mxCell>
                <mxCell id="u0o78SNe3BMZUImaw-QG-19" value="image: jwilder/nginx-proxy" style="text;html=1;strokeColor=none;fillColor=none;align=left;verticalAlign=middle;whiteSpace=wrap;rounded=0;fontSize=15;" parent="1" vertex="1">
                    <mxGeometry x="77.55000000000001" y="1953.5" width="179.14" height="30" as="geometry"/>
                </mxCell>
                <mxCell id="u0o78SNe3BMZUImaw-QG-20" value="" style="aspect=fixed;html=1;points=[];align=center;image;fontSize=12;image=img/lib/mscae/Application_Gateway.svg;" parent="1" vertex="1">
                    <mxGeometry x="142.12" y="1998.5" width="50" height="50" as="geometry"/>
                </mxCell>
                <mxCell id="u0o78SNe3BMZUImaw-QG-21" value="SSL化" style="text;html=1;strokeColor=none;fillColor=none;align=center;verticalAlign=middle;whiteSpace=wrap;rounded=0;fontSize=15;" parent="1" vertex="1">
                    <mxGeometry x="142.12" y="2367.5" width="70.01" height="20" as="geometry"/>
                </mxCell>
                <mxCell id="u0o78SNe3BMZUImaw-QG-22" value="" style="aspect=fixed;pointerEvents=1;shadow=0;dashed=0;html=1;strokeColor=none;labelPosition=center;verticalLabelPosition=bottom;verticalAlign=top;align=center;fillColor=#00188D;shape=mxgraph.mscae.enterprise.internet;fontSize=15;" parent="1" vertex="1">
                    <mxGeometry x="129.22" y="1760" width="75.81" height="47" as="geometry"/>
                </mxCell>
                <mxCell id="u0o78SNe3BMZUImaw-QG-23" value="" style="shape=flexArrow;endArrow=classic;html=1;fontSize=15;fillColor=#dae8fc;strokeColor=#6c8ebf;" parent="1" edge="1">
                    <mxGeometry width="50" height="50" relative="1" as="geometry">
                        <mxPoint x="166.68" y="1810" as="sourcePoint"/>
                        <mxPoint x="167.11000000000007" y="1915" as="targetPoint"/>
                    </mxGeometry>
                </mxCell>
                <mxCell id="u0o78SNe3BMZUImaw-QG-24" value="&lt;div&gt;&lt;span&gt;Port:&lt;/span&gt;&lt;/div&gt;&lt;div&gt;&lt;span&gt;&amp;nbsp; - 80: HTTP&lt;/span&gt;&lt;/div&gt;&lt;div&gt;&lt;span&gt;&amp;nbsp; - 443: HTTPS&lt;/span&gt;&lt;/div&gt;" style="text;html=1;strokeColor=none;fillColor=none;align=left;verticalAlign=middle;whiteSpace=wrap;rounded=0;fontSize=15;" parent="1" vertex="1">
                    <mxGeometry x="181.68" y="1817" width="120" height="60" as="geometry"/>
                </mxCell>
                <mxCell id="u0o78SNe3BMZUImaw-QG-69" style="edgeStyle=orthogonalEdgeStyle;rounded=0;orthogonalLoop=1;jettySize=auto;html=1;entryX=0;entryY=0.5;entryDx=0;entryDy=0;startArrow=classic;startFill=1;strokeColor=#6666FF;strokeWidth=2;" parent="1" source="u0o78SNe3BMZUImaw-QG-25" target="u0o78SNe3BMZUImaw-QG-58" edge="1">
                    <mxGeometry relative="1" as="geometry"/>
                </mxCell>
                <mxCell id="u0o78SNe3BMZUImaw-QG-25" value="" style="rounded=1;whiteSpace=wrap;html=1;fontSize=16;fillColor=#fff2cc;strokeColor=#d6b656;" parent="1" vertex="1">
                    <mxGeometry x="378.38999999999993" y="1940.5" width="220.01" height="269.5" as="geometry"/>
                </mxCell>
                <mxCell id="u0o78SNe3BMZUImaw-QG-26" value="web" style="rounded=0;whiteSpace=wrap;html=1;fontSize=15;align=center;fillColor=#ffe6cc;strokeColor=#d79b00;" parent="1" vertex="1">
                    <mxGeometry x="398.38999999999993" y="1923.5" width="63.29" height="30" as="geometry"/>
                </mxCell>
                <mxCell id="u0o78SNe3BMZUImaw-QG-27" value="&lt;font style=&quot;font-size: 12px&quot;&gt;VIRTUAL_HOST&lt;/font&gt;" style="shape=step;perimeter=stepPerimeter;whiteSpace=wrap;html=1;fixedSize=1;fontSize=15;align=center;" parent="1" vertex="1">
                    <mxGeometry x="393.4" y="2048.5" width="190" height="30" as="geometry"/>
                </mxCell>
                <mxCell id="u0o78SNe3BMZUImaw-QG-28" value="&lt;font style=&quot;font-size: 12px&quot;&gt;VIRTUAL_PORT&lt;/font&gt;" style="shape=step;perimeter=stepPerimeter;whiteSpace=wrap;html=1;fixedSize=1;fontSize=15;align=center;" parent="1" vertex="1">
                    <mxGeometry x="393.4" y="2078.5" width="190" height="30" as="geometry"/>
                </mxCell>
                <mxCell id="u0o78SNe3BMZUImaw-QG-29" value="&lt;font style=&quot;font-size: 12px&quot;&gt;LETSENCRYPT_HOST&lt;/font&gt;" style="shape=step;perimeter=stepPerimeter;whiteSpace=wrap;html=1;fixedSize=1;fontSize=15;align=center;" parent="1" vertex="1">
                    <mxGeometry x="393.4" y="2108.5" width="190" height="30" as="geometry"/>
                </mxCell>
                <mxCell id="u0o78SNe3BMZUImaw-QG-30" value="&lt;font style=&quot;font-size: 12px&quot;&gt;LETSENCRYPT_EMAIL&lt;/font&gt;" style="shape=step;perimeter=stepPerimeter;whiteSpace=wrap;html=1;fixedSize=1;fontSize=15;align=center;" parent="1" vertex="1">
                    <mxGeometry x="393.4" y="2138.5" width="190" height="30" as="geometry"/>
                </mxCell>
                <mxCell id="u0o78SNe3BMZUImaw-QG-31" style="edgeStyle=orthogonalEdgeStyle;rounded=0;orthogonalLoop=1;jettySize=auto;html=1;fontSize=15;entryX=1;entryY=0.5;entryDx=0;entryDy=0;" parent="1" source="u0o78SNe3BMZUImaw-QG-32" target="u0o78SNe3BMZUImaw-QG-15" edge="1">
                    <mxGeometry relative="1" as="geometry">
                        <mxPoint x="332.67999999999995" y="2420.5" as="targetPoint"/>
                        <Array as="points">
                            <mxPoint x="610" y="2184"/>
                            <mxPoint x="610" y="2398"/>
                        </Array>
                    </mxGeometry>
                </mxCell>
                <mxCell id="u0o78SNe3BMZUImaw-QG-32" value="&lt;font style=&quot;font-size: 12px&quot;&gt;CERT_NAME&lt;/font&gt;" style="shape=step;perimeter=stepPerimeter;whiteSpace=wrap;html=1;fixedSize=1;fontSize=15;align=center;" parent="1" vertex="1">
                    <mxGeometry x="393.4" y="2168.5" width="190" height="30" as="geometry"/>
                </mxCell>
                <mxCell id="u0o78SNe3BMZUImaw-QG-33" value="" style="shape=curlyBracket;whiteSpace=wrap;html=1;rounded=1;fontSize=15;align=left;" parent="1" vertex="1">
                    <mxGeometry x="364.66999999999996" y="2048.5" width="20" height="60" as="geometry"/>
                </mxCell>
                <mxCell id="u0o78SNe3BMZUImaw-QG-34" value="" style="shape=curlyBracket;whiteSpace=wrap;html=1;rounded=1;fontSize=15;align=left;" parent="1" vertex="1">
                    <mxGeometry x="363.83" y="2108.5" width="20" height="60" as="geometry"/>
                </mxCell>
                <mxCell id="u0o78SNe3BMZUImaw-QG-35" value="対応するドメイン名の&lt;br&gt;無料SSL発行申請" style="text;html=1;strokeColor=none;fillColor=none;align=center;verticalAlign=middle;whiteSpace=wrap;rounded=0;fontSize=15;" parent="1" vertex="1">
                    <mxGeometry x="141.67000000000002" y="2118.5" width="160.01" height="40" as="geometry"/>
                </mxCell>
                <mxCell id="u0o78SNe3BMZUImaw-QG-36" value="Let's Encrypt&lt;br&gt;無料SSL発行サービス" style="text;html=1;strokeColor=none;fillColor=none;align=center;verticalAlign=middle;whiteSpace=wrap;rounded=0;fontSize=15;" parent="1" vertex="1">
                    <mxGeometry x="1181" y="2243.5" width="160" height="50" as="geometry"/>
                </mxCell>
                <mxCell id="u0o78SNe3BMZUImaw-QG-37" style="edgeStyle=orthogonalEdgeStyle;rounded=0;orthogonalLoop=1;jettySize=auto;html=1;entryX=0.5;entryY=0;entryDx=0;entryDy=0;fontSize=15;" parent="1" source="u0o78SNe3BMZUImaw-QG-38" target="u0o78SNe3BMZUImaw-QG-36" edge="1">
                    <mxGeometry relative="1" as="geometry"/>
                </mxCell>
                <mxCell id="u0o78SNe3BMZUImaw-QG-38" value="" style="shape=curlyBracket;whiteSpace=wrap;html=1;rounded=1;fontSize=15;align=left;flipV=1;flipH=1;" parent="1" vertex="1">
                    <mxGeometry x="591.68" y="2108.5" width="20" height="60" as="geometry"/>
                </mxCell>
                <mxCell id="u0o78SNe3BMZUImaw-QG-39" value="ローカル開発時は default を指定" style="text;html=1;strokeColor=none;fillColor=none;align=center;verticalAlign=middle;whiteSpace=wrap;rounded=0;fontSize=15;" parent="1" vertex="1">
                    <mxGeometry x="479.99999999999994" y="2210" width="130" height="83" as="geometry"/>
                </mxCell>
                <mxCell id="u0o78SNe3BMZUImaw-QG-40" value="無料SSL発行申請" style="text;html=1;strokeColor=none;fillColor=none;align=center;verticalAlign=middle;whiteSpace=wrap;rounded=0;fontSize=15;" parent="1" vertex="1">
                    <mxGeometry x="1181" y="2098.5" width="130" height="40" as="geometry"/>
                </mxCell>
                <mxCell id="u0o78SNe3BMZUImaw-QG-41" value="" style="shape=flexArrow;endArrow=classic;html=1;fontSize=15;fillColor=#dae8fc;strokeColor=#6c8ebf;entryX=0.1;entryY=0.5;entryDx=0;entryDy=0;entryPerimeter=0;" parent="1" target="u0o78SNe3BMZUImaw-QG-33" edge="1">
                    <mxGeometry width="50" height="50" relative="1" as="geometry">
                        <mxPoint x="191.68" y="2023.5" as="sourcePoint"/>
                        <mxPoint x="232.68000000000006" y="2113.5" as="targetPoint"/>
                    </mxGeometry>
                </mxCell>
                <mxCell id="u0o78SNe3BMZUImaw-QG-42" value="" style="aspect=fixed;pointerEvents=1;shadow=0;dashed=0;html=1;strokeColor=none;labelPosition=center;verticalLabelPosition=bottom;verticalAlign=top;align=center;fillColor=#00188D;shape=mxgraph.mscae.enterprise.web_server;fontSize=15;fontColor=#FFFFFF;" parent="1" vertex="1">
                    <mxGeometry x="61.68" y="1890.5" width="38" height="50" as="geometry"/>
                </mxCell>
                <mxCell id="u0o78SNe3BMZUImaw-QG-43" value="" style="aspect=fixed;pointerEvents=1;shadow=0;dashed=0;html=1;strokeColor=none;labelPosition=center;verticalLabelPosition=bottom;verticalAlign=top;align=center;fillColor=#00188D;shape=mxgraph.mscae.enterprise.settings;fontSize=15;fontColor=#FFFFFF;" parent="1" vertex="1">
                    <mxGeometry x="119.4" y="2183.5" width="50" height="50" as="geometry"/>
                </mxCell>
                <mxCell id="u0o78SNe3BMZUImaw-QG-44" value="" style="aspect=fixed;pointerEvents=1;shadow=0;dashed=0;html=1;strokeColor=none;labelPosition=center;verticalLabelPosition=bottom;verticalAlign=top;align=center;fillColor=#00188D;shape=mxgraph.mscae.enterprise.application_server2;fontSize=15;fontColor=#FFFFFF;" parent="1" vertex="1">
                    <mxGeometry x="361.66999999999996" y="1890.5" width="43" height="50" as="geometry"/>
                </mxCell>
                <mxCell id="u0o78SNe3BMZUImaw-QG-45" value="image: php:7.3-apache&lt;br&gt;middlewares:&lt;br&gt;&amp;nbsp; - apache: 2.4&lt;br&gt;&amp;nbsp; - php: 7.3" style="text;html=1;strokeColor=none;fillColor=none;align=left;verticalAlign=middle;whiteSpace=wrap;rounded=0;fontSize=15;" parent="1" vertex="1">
                    <mxGeometry x="398.38999999999993" y="1953.5" width="179.14" height="86.5" as="geometry"/>
                </mxCell>
                <mxCell id="u0o78SNe3BMZUImaw-QG-46" value="http(s)://web.local/ を&lt;br&gt;web コンテナに振り分け" style="text;html=1;strokeColor=none;fillColor=none;align=center;verticalAlign=middle;whiteSpace=wrap;rounded=0;fontSize=15;" parent="1" vertex="1">
                    <mxGeometry x="201.67000000000002" y="1990" width="190.01" height="40" as="geometry"/>
                </mxCell>
                <mxCell id="u0o78SNe3BMZUImaw-QG-47" style="edgeStyle=orthogonalEdgeStyle;rounded=0;orthogonalLoop=1;jettySize=auto;html=1;entryX=1;entryY=0.5;entryDx=0;entryDy=0;exitX=1.105;exitY=0.54;exitDx=0;exitDy=0;exitPerimeter=0;" parent="1" source="u0o78SNe3BMZUImaw-QG-48" target="u0o78SNe3BMZUImaw-QG-50" edge="1">
                    <mxGeometry relative="1" as="geometry">
                        <Array as="points">
                            <mxPoint x="800" y="2587"/>
                            <mxPoint x="800" y="2010"/>
                        </Array>
                        <mxPoint x="549.97" y="2585" as="sourcePoint"/>
                        <mxPoint x="813.2599999999998" y="2010" as="targetPoint"/>
                    </mxGeometry>
                </mxCell>
                <mxCell id="u0o78SNe3BMZUImaw-QG-48" value="" style="aspect=fixed;pointerEvents=1;shadow=0;dashed=0;html=1;strokeColor=none;labelPosition=center;verticalLabelPosition=bottom;verticalAlign=top;align=center;shape=mxgraph.mscae.enterprise.user_permissions;fillColor=#0078D7;fontSize=15;fontColor=#FFFFFF;" parent="1" vertex="1">
                    <mxGeometry x="351.39" y="2560" width="47" height="50" as="geometry"/>
                </mxCell>
                <mxCell id="u0o78SNe3BMZUImaw-QG-49" value="&lt;span style=&quot;font-size: 14px&quot;&gt;コンテナ起動時、Docker実行ユーザと webコンテナ内ユーザ&lt;br&gt;（www-data）のユーザIDを合わせてパーミッションを修正&lt;br&gt;&lt;/span&gt;" style="text;html=1;strokeColor=none;fillColor=none;align=center;verticalAlign=middle;whiteSpace=wrap;rounded=0;fontSize=16;" parent="1" vertex="1">
                    <mxGeometry x="405.0399999999999" y="2530" width="393.29" height="50" as="geometry"/>
                </mxCell>
                <mxCell id="u0o78SNe3BMZUImaw-QG-50" value="web-data&lt;br&gt;ボリューム" style="rounded=1;whiteSpace=wrap;html=1;fontSize=16;align=center;fillColor=#d5e8d4;strokeColor=#82b366;" parent="1" vertex="1">
                    <mxGeometry x="571.68" y="1971.25" width="98.28" height="77.5" as="geometry"/>
                </mxCell>
                <mxCell id="u0o78SNe3BMZUImaw-QG-51" value="" style="aspect=fixed;pointerEvents=1;shadow=0;dashed=0;html=1;strokeColor=none;labelPosition=center;verticalLabelPosition=bottom;verticalAlign=top;align=center;fillColor=#00188D;shape=mxgraph.mscae.enterprise.shared_folder;fontSize=15;" parent="1" vertex="1">
                    <mxGeometry x="560.18" y="1940" width="43" height="50" as="geometry"/>
                </mxCell>
                <mxCell id="u0o78SNe3BMZUImaw-QG-52" value="&lt;font style=&quot;font-size: 15px&quot;&gt;Web公開ディレクトリ&lt;br&gt;= Webアプリ開発ディレクトリ&lt;br&gt;&lt;/font&gt;" style="shape=callout;whiteSpace=wrap;html=1;perimeter=calloutPerimeter;position2=0.46;base=12;size=29;position=0.48;" parent="1" vertex="1">
                    <mxGeometry x="541.68" y="1870" width="240" height="90" as="geometry"/>
                </mxCell>
                <mxCell id="u0o78SNe3BMZUImaw-QG-67" style="edgeStyle=orthogonalEdgeStyle;rounded=0;orthogonalLoop=1;jettySize=auto;html=1;entryX=0;entryY=0.5;entryDx=0;entryDy=0;startArrow=classic;startFill=1;strokeWidth=2;strokeColor=#6666FF;" parent="1" source="u0o78SNe3BMZUImaw-QG-53" target="u0o78SNe3BMZUImaw-QG-56" edge="1">
                    <mxGeometry relative="1" as="geometry"/>
                </mxCell>
                <mxCell id="u0o78SNe3BMZUImaw-QG-70" style="edgeStyle=orthogonalEdgeStyle;rounded=0;orthogonalLoop=1;jettySize=auto;html=1;entryX=1.009;entryY=0.588;entryDx=0;entryDy=0;entryPerimeter=0;startArrow=classic;startFill=1;strokeColor=#6666FF;strokeWidth=2;" parent="1" source="u0o78SNe3BMZUImaw-QG-53" target="u0o78SNe3BMZUImaw-QG-25" edge="1">
                    <mxGeometry relative="1" as="geometry">
                        <Array as="points">
                            <mxPoint x="760" y="2099"/>
                        </Array>
                    </mxGeometry>
                </mxCell>
                <mxCell id="u0o78SNe3BMZUImaw-QG-53" value="" style="rounded=1;whiteSpace=wrap;html=1;fontSize=16;fillColor=#fff2cc;strokeColor=#d6b656;" parent="1" vertex="1">
                    <mxGeometry x="642.5" y="2250" width="240" height="170" as="geometry"/>
                </mxCell>
                <mxCell id="u0o78SNe3BMZUImaw-QG-54" value="image: mysql:5.7&lt;br&gt;middlewares:&lt;br&gt;&amp;nbsp; &amp;nbsp; - mysql: 5.7" style="text;html=1;strokeColor=none;fillColor=none;align=left;verticalAlign=top;whiteSpace=wrap;rounded=0;fontSize=16;" parent="1" vertex="1">
                    <mxGeometry x="689.5" y="2260" width="160" height="90" as="geometry"/>
                </mxCell>
                <mxCell id="u0o78SNe3BMZUImaw-QG-55" value="db-data&lt;br&gt;ボリュームコンテナ" style="rounded=1;whiteSpace=wrap;html=1;fontSize=16;align=center;fillColor=#d5e8d4;strokeColor=#82b366;" parent="1" vertex="1">
                    <mxGeometry x="689.5" y="2350" width="160" height="60" as="geometry"/>
                </mxCell>
                <mxCell id="u0o78SNe3BMZUImaw-QG-56" value="" style="rounded=1;whiteSpace=wrap;html=1;fontSize=16;fillColor=#fff2cc;strokeColor=#d6b656;" parent="1" vertex="1">
                    <mxGeometry x="913.5" y="2250" width="240" height="170" as="geometry"/>
                </mxCell>
                <mxCell id="u0o78SNe3BMZUImaw-QG-57" value="image: phpmyadmin:latest&lt;br&gt;middlewares:&lt;br&gt;&amp;nbsp; &amp;nbsp; - phpMyAdmin: 5.0.0&lt;br&gt;&lt;br&gt;&lt;font style=&quot;font-size: 14px&quot;&gt;※データベースの内容確認用&lt;/font&gt;" style="text;html=1;strokeColor=none;fillColor=none;align=left;verticalAlign=top;whiteSpace=wrap;rounded=0;fontSize=16;" parent="1" vertex="1">
                    <mxGeometry x="933.5" y="2260" width="200" height="110" as="geometry"/>
                </mxCell>
                <mxCell id="u0o78SNe3BMZUImaw-QG-58" value="" style="rounded=1;whiteSpace=wrap;html=1;fontSize=16;fillColor=#fff2cc;strokeColor=#d6b656;" parent="1" vertex="1">
                    <mxGeometry x="917" y="1990" width="240" height="170" as="geometry"/>
                </mxCell>
                <mxCell id="u0o78SNe3BMZUImaw-QG-59" value="image: mailhog&lt;br&gt;middlewares:&lt;br&gt;&amp;nbsp; &amp;nbsp; - MailHog&lt;br&gt;&lt;br&gt;&lt;font style=&quot;font-size: 14px&quot;&gt;※ローカル環境でメール送受信&lt;br&gt;　を可能にする&lt;/font&gt;" style="text;html=1;strokeColor=none;fillColor=none;align=left;verticalAlign=top;whiteSpace=wrap;rounded=0;fontSize=16;" parent="1" vertex="1">
                    <mxGeometry x="937" y="2017" width="200" height="133" as="geometry"/>
                </mxCell>
                <mxCell id="u0o78SNe3BMZUImaw-QG-60" value="" style="aspect=fixed;html=1;points=[];align=center;image;fontSize=12;image=img/lib/mscae/Databricks.svg;" parent="1" vertex="1">
                    <mxGeometry x="669.5" y="2327" width="50" height="48" as="geometry"/>
                </mxCell>
                <mxCell id="u0o78SNe3BMZUImaw-QG-61" value="db" style="rounded=0;whiteSpace=wrap;html=1;fontSize=15;align=center;fillColor=#ffe6cc;strokeColor=#d79b00;" parent="1" vertex="1">
                    <mxGeometry x="669.5" y="2230" width="60" height="30" as="geometry"/>
                </mxCell>
                <mxCell id="u0o78SNe3BMZUImaw-QG-62" value="pma" style="rounded=0;whiteSpace=wrap;html=1;fontSize=15;align=center;fillColor=#ffe6cc;strokeColor=#d79b00;" parent="1" vertex="1">
                    <mxGeometry x="933.5" y="2230" width="64.5" height="30" as="geometry"/>
                </mxCell>
                <mxCell id="u0o78SNe3BMZUImaw-QG-63" value="" style="aspect=fixed;pointerEvents=1;shadow=0;dashed=0;html=1;strokeColor=none;labelPosition=center;verticalLabelPosition=bottom;verticalAlign=top;align=center;fillColor=#00188D;shape=mxgraph.mscae.enterprise.web_server;fontSize=15;fontColor=#FFFFFF;" parent="1" vertex="1">
                    <mxGeometry x="895.5" y="2200" width="38" height="50" as="geometry"/>
                </mxCell>
                <mxCell id="u0o78SNe3BMZUImaw-QG-64" value="smtp" style="rounded=0;whiteSpace=wrap;html=1;fontSize=15;align=center;fillColor=#ffe6cc;strokeColor=#d79b00;" parent="1" vertex="1">
                    <mxGeometry x="937" y="1975" width="64.5" height="30" as="geometry"/>
                </mxCell>
                <mxCell id="u0o78SNe3BMZUImaw-QG-65" value="" style="aspect=fixed;html=1;points=[];align=center;image;fontSize=12;image=img/lib/mscae/SQL_Servers.svg;" parent="1" vertex="1">
                    <mxGeometry x="625.5" y="2200" width="50" height="50" as="geometry"/>
                </mxCell>
                <mxCell id="u0o78SNe3BMZUImaw-QG-66" value="" style="aspect=fixed;pointerEvents=1;shadow=0;dashed=0;html=1;strokeColor=none;labelPosition=center;verticalLabelPosition=bottom;verticalAlign=top;align=center;fillColor=#00188D;shape=mxgraph.azure.message2;fontSize=15;fontColor=#FFFFFF;" parent="1" vertex="1">
                    <mxGeometry x="893" y="1957" width="50" height="37" as="geometry"/>
                </mxCell>
            </root>
        </mxGraphModel>
    </diagram>
</mxfile>